<mxfile host="app.diagrams.net" modified="2024-04-11T07:34:35.625Z" agent="Mozilla/5.0 (Windows NT 10.0; Win64; x64; rv:124.0) Gecko/20100101 Firefox/124.0" etag="C90NsdFPFKLjKCo4FCgW" version="24.2.2" type="dropbox" pages="5">
  <diagram name="pixel" id="lFFknrF0N6V8kfkwiPZe">
    <mxGraphModel dx="714" dy="431" grid="0" gridSize="10" guides="1" tooltips="1" connect="1" arrows="1" fold="1" page="1" pageScale="1" pageWidth="1169" pageHeight="1654" math="0" shadow="0">
      <root>
        <mxCell id="0" />
        <mxCell id="1" parent="0" />
        <mxCell id="SJkCqDZSYB26VnW_JRNG-1" value="" style="rounded=0;whiteSpace=wrap;html=1;fillColor=#f5f5f5;fontColor=#333333;strokeColor=#666666;" parent="1" vertex="1">
          <mxGeometry x="440" y="200" width="200" height="120" as="geometry" />
        </mxCell>
        <mxCell id="SJkCqDZSYB26VnW_JRNG-2" value="Image" style="text;html=1;align=center;verticalAlign=middle;resizable=0;points=[];autosize=1;strokeColor=none;fillColor=none;fontStyle=1" parent="1" vertex="1">
          <mxGeometry x="580" y="290" width="60" height="30" as="geometry" />
        </mxCell>
        <mxCell id="SJkCqDZSYB26VnW_JRNG-3" value="" style="endArrow=classic;html=1;rounded=0;exitX=0;exitY=0;exitDx=0;exitDy=0;strokeWidth=1.5;" parent="1" source="SJkCqDZSYB26VnW_JRNG-1" edge="1">
          <mxGeometry width="50" height="50" relative="1" as="geometry">
            <mxPoint x="540" y="330" as="sourcePoint" />
            <mxPoint x="680" y="200" as="targetPoint" />
          </mxGeometry>
        </mxCell>
        <mxCell id="SJkCqDZSYB26VnW_JRNG-5" value="" style="endArrow=classic;html=1;rounded=0;exitX=0;exitY=0;exitDx=0;exitDy=0;strokeWidth=1.5;" parent="1" source="SJkCqDZSYB26VnW_JRNG-1" edge="1">
          <mxGeometry width="50" height="50" relative="1" as="geometry">
            <mxPoint x="540" y="330" as="sourcePoint" />
            <mxPoint x="440" y="360" as="targetPoint" />
          </mxGeometry>
        </mxCell>
        <mxCell id="SJkCqDZSYB26VnW_JRNG-6" value="0" style="text;html=1;align=center;verticalAlign=middle;resizable=0;points=[];autosize=1;strokeColor=none;fillColor=none;fontSize=13;fontStyle=1" parent="1" vertex="1">
          <mxGeometry x="421" y="176" width="30" height="30" as="geometry" />
        </mxCell>
        <mxCell id="SJkCqDZSYB26VnW_JRNG-7" value="x" style="text;html=1;align=center;verticalAlign=middle;resizable=0;points=[];autosize=1;strokeColor=none;fillColor=none;fontSize=13;fontStyle=1" parent="1" vertex="1">
          <mxGeometry x="670" y="176" width="30" height="30" as="geometry" />
        </mxCell>
        <mxCell id="SJkCqDZSYB26VnW_JRNG-8" value="y" style="text;html=1;align=center;verticalAlign=middle;resizable=0;points=[];autosize=1;strokeColor=none;fillColor=none;fontSize=13;fontStyle=1" parent="1" vertex="1">
          <mxGeometry x="410" y="340" width="30" height="30" as="geometry" />
        </mxCell>
      </root>
    </mxGraphModel>
  </diagram>
  <diagram id="7IuiOUIzUkwiWBoW05hn" name="histo_img">
    <mxGraphModel dx="1434" dy="754" grid="0" gridSize="10" guides="1" tooltips="1" connect="1" arrows="1" fold="1" page="1" pageScale="1" pageWidth="1169" pageHeight="1654" math="0" shadow="0">
      <root>
        <mxCell id="0" />
        <mxCell id="1" parent="0" />
        <mxCell id="DdOHN27BAVobAzTbsbA9-1" value="" style="shape=image;verticalLabelPosition=bottom;labelBackgroundColor=default;verticalAlign=top;aspect=fixed;imageAspect=0;image=data:image/jpeg,/9j/4QDCRXhpZgAASUkqAAgAAAAHABIBAwABAAAAAQAAABoBBQABAAAAYgAAABsBBQABAAAAagAAACgBAwABAAAAAgAAADEBAgAOAAAAcgAAADIBAgAUAAAAgAAAAGmHBAABAAAAlAAAAAAAAABgAAAAAQAAAGAAAAABAAAAUGhvdG9GaWx0cmUgNwAyMDI0OjA0OjAyIDExOjUyOjMxAAMAAJAHAAQAAAAwMjEwAqADAAEAAAAyAgAAA6ADAAEAAAANAQAA/9sAQwABAQEBAQEBAQEBAQEBAQEBAQEBAQEBAQEBAQEBAQEBAQEBAQEBAQEBAQEBAQEBAQEBAQEBAQEBAQEBAQEBAQEB/9sAQwEBAQEBAQEBAQEBAQEBAQEBAQEBAQEBAQEBAQEBAQEBAQEBAQEBAQEBAQEBAQEBAQEBAQEBAQEBAQEBAQEBAQEB/8AAEQgBDQIyAwEiAAIRAQMRAf/EAB8AAAEFAQEBAQEBAAAAAAAAAAABAgMEBQYHCAkKC//EALUQAAIBAwMCBAMFBQQEAAABfQECAwAEEQUSITFBBhNRYQcicRQygZGhCCNCscEVUtHwJDNicoIJChYXGBkaJSYnKCkqNDU2Nzg5OkNERUZHSElKU1RVVldYWVpjZGVmZ2hpanN0dXZ3eHl6g4SFhoeIiYqSk5SVlpeYmZqio6Slpqeoqaqys7S1tre4ubrCw8TFxsfIycrS09TV1tfY2drh4uPk5ebn6Onq8fLz9PX29/j5+v/EAB8BAAMBAQEBAQEBAQEAAAAAAAABAgMEBQYHCAkKC//EALURAAIBAgQEAwQHBQQEAAECdwABAgMRBAUhMQYSQVEHYXETIjKBCBRCkaGxwQkjM1LwFWJy0QoWJDThJfEXGBkaJicoKSo1Njc4OTpDREVGR0hJSlNUVVZXWFlaY2RlZmdoaWpzdHV2d3h5eoKDhIWGh4iJipKTlJWWl5iZmqKjpKWmp6ipqrKztLW2t7i5usLDxMXGx8jJytLT1NXW19jZ2uLj5OXm5+jp6vLz9PX29/j5+v/aAAwDAQACEQMRAD8A/v4ooooAKKKKACiiigAooooAKKKKACiiigAooooAKKKKACiiigAooooAKKKKACiiigAooooAKKKKACiiigAooooAKKKKACiiigAooooAKKKKACiiigAooooAKKKKACiiigAooooAKKKKACiiigAooooAKKKKACiiigAooooAKKKKACiiigAoxznv0oooWyA4H4qeNx8Mvhj8R/iP/Zn9tHwB4D8YeN/7G+2nTf7X/wCEV8P6jrv9mf2j9kv/ALB9v+wfZPtv2G9+y+b5/wBkuNnkv+DP/BDz/gvj/wAPmPGf7QvhH/hlH/hnD/hQ/hnwB4i/tD/hev8AwuD/AISr/hOdV8T6Z9j+yf8ACnPhd/Yf9l/8I55/2j7TrH237Z5fkWn2fzJ/2n/aq/5Nk/aN/wCyDfF7/wBV/wCIq/g1/wCDHoH/AIXL/wAFCW2ttPw0+AQ3bTtyPFXxMJXdjbuwQduc45xigD/RHooooAKKKKACiiigAooooAKKKKACiiigAooooAKKKKACiiigAooooAKKKKACiiigAooooAKKKKACiiigAooooAKKKKACiiigAooooAKKKKACiiigAooooAKKKKACiiigAooooAKKKKACiiigAooooAKKKKACiiigAooooAKKKKACiiigAooooAKKKKAPBv2p1B/Zj/aNyP8Amg/xe/8AVfeIa/x+/wDghJ418Y+Fv+CtP7B2keGPFnibw7pXi79qD4TaP4r0zQtd1TSdP8T6Sdf/AOQX4isrC6t7bW9OHnTbbLU47q2UyylYwZH3f7Av7U3/ACbF+0b/ANkH+L3/AKr7xDX+Op/wRB/5S9f8E7f+zsfhL/6f46AP9qOiiigAooooAKKKKACiiigAooooAKKKKACiiigAooooAKKKKACiiigAooooAKKKKACiiigAooooAKKKKACiiigAooooAKKKKACiiigAooooAKKKKACiiigAooooAKKKKACiiigAooooAKKKKACiiigAooooAKKKKACiiigAooooAKKKKACiiigAooooA+GP+Cj37SfwI/Zh/ZB+Mfiz9oD4o+FfhR4b8ceB/Hfwr8J6z4uvJLGx134ieLvhz4zn8NeErGZIZg2raxDo+py2kcgjiKWU7PKgUZ/yRf8Agh+jSf8ABXj/AIJ3lBkL+1f8J3JyANqeIIFY8kZwZEGBkndwCM4/vC/4PODj/glT8NDk4T9tn4OuFJJTI+Ev7Q4+aMnYwIPzKykNhCwJRNv8Hf8AwRACzf8ABXn/AIJ1q6xyp/w1b8J32yxrKPNj8QwTJMBIG2zJLDHIky4kV0VlYFRQB/tR0UUUAFFFFABRRRQAUUUUAFFFFABRRRQAUUUUAFFFFABRRRQAUUUUAFFFFABRRRQAUUUUAFFFFABRRRQAUUUUAFFFFABRRRQAUUUUAFFFFABRRRQAUUUUAFFFFABRRRQAUUUUAFFFFABRRRQAUUUUAFFFFABRRRQAUUUUAFFFFABRRRQAUUUUAFFFFAH8j/8Awec/8op/ht/2et8Hv/VTftDV/Bz/AMEQN/8Aw90/4J0hCYyP2svhMxljCs7r/wAJHZq0TLKWjEbIzIzJGJgszsj71iMf943/AAec/wDKKf4bf9nrfB7/ANVN+0NX8HH/AARAbd/wV0/4J0x7jHj9rH4Sv5iKrO+fElifKYSFkEbeXtZkUShZHIYsIygB/tT0UUUAFFFFABRRRQAUUUUAFFFFABRRRQAUUUUAFFFFABRRRQAUUUUAFFFFABRRRQAUUUUAFFFFABRRRQAUUUUAFFFFABRRRQAUUUUAFFFFABRRRQAUUUUAFFFFABRRRQAUUUUAFFFFABRRRQAUUUUAFFFFABRRRQAUUUUAFFFFABRRRQAh5HXHvSYbjn0zz+fbqfrTqKP6/r/J6Ctre7/T7n+as/MKKKYN27Ocjn0GOeO/OB+P4jFF/wCvu/z/AK0Bu3RvW2n5+h/JF/wec/8AKKf4bf8AZ63we/8AVTftDV/Bt/wRD+b/AIK5/wDBOhFzG4/a0+EbmVBukZB4lsj5TCQmEREKyllQTASOVfcIin95X/B5yD/w6m+G57f8NrfB7/1U37Q1fwa/8EQ/m/4K5/8ABOhFzG4/a0+EbmVBukZB4lsj5TCQmEREKyllQTASOVfcIigM/wBqmiiigAooooAKKKKACiiigAooooAKKKKACiiigAooooAKKKKACiiigAooooAKKKKACiiigAooooAKKKKACiiigAooooAKKKKACiiigAooooAKKKKACiiigAooooAKKKKACiiigAooooAKKKKACiiigAooooAKKKKACiiigAooooAKKKKACiiigAqEL5SuIxnLSOqZ5LuxdvmbdgmRmIz8q7guAqgCbNR5GcEdGOD6c/41nOPM476Pddrp29LpP1S7BzJWTbs+3dbfnv2uup/Cd/weZft5/Bif4Q/D7/gnCmkfEQfHu2+I3wh/apl1ptF0Bfhifhp/wjfx6+H8dhH4gXxI/iFvFba7eR3P9lt4TSw/s4NM2trMBZN/IX/wRDH/ABtz/wCCdBjP77/hrT4R71cbY/J/4SWyyVkXzGMu0y4jMSqSsYMyh2aP9dv+Dyn/AJS0+Dv+zNvg5/6sH401+RH/AAREIP8AwVy/4JzqP3bf8Na/CM+ag3SOP+Elsf3LCQmIRNhlLLGJgJHKvuERTRee43+i/JH+1VRRRQIKKKKACiiigAooooAKKKKACiiigAooooAKKKKACiiigAooooAKKKKACiiigAooooAKKKKACiiigAooooAKKKKACiiigAooooAKKKKACiiigAooooAKKKKACiiigAooooAKKKKACiiigAooooAKKKKACiiigAooooAKKKKACiiigApCM+v5kfyIP60tFADQoGOpI7kml2jOcc5z3paKLhvvqf5Zf/B5Qc/8FafB2f8Aozb4N/8AqwPjQa/Ir/giMT/w9w/4JzB/3kP/AA1x8IisRxMEl/4SbT8TeR87RkMImFz5ahfK3+YPIYp+un/B5P8A8pafB3/Zm3wb/wDVgfGevyM/4Ignb/wV0/4J0lHxI37WXwkRlbcieWfEtkDtkjEjNIymQCNo0jJCBpgrs0YB/tUUUUUAFFFFABRRRQAUUUUAFFFFABRRRQAUUUUAFFFFABRRRQAUUUUAFFFFABRRRQAUUUUAFFFFABRRRQAUUUUAFFFFABRRRQAUUUUAFFFFABRRRQAUUUUAFFFFABRRRQAUUUUAFFFFABRRRQAUUUUAFFFFABRRRQAUUUUAFFFFABRRRQAUUUUAFI24KxUAtg7QzbVLY4BYK5UE9WCtgc7T0K01zhGPy8Kx+Y7V4BPzNg7V9Tg4HOD0oA/xnf8Aguz/AMFFoP8Agpn+3pr3xtt/hDJ8F4vhz4G039nweG5fiBbfEdtZb4aeNfH1zJ4sGtWfhTwla2SaxJ4leGLRre21WK0isEuF12/+2bLbzr/giIF/4e4/8E5y2UH/AA1t8I8PCPNmZv8AhJtPxHJFl9luSQGn8ldqPMwl/dZi+Dv2gQ3/AAvb40F4ngdviv8AEVmheyTTmjY+Mda/dtYRSzR2TpjZJZpI62kqvbKzCLcfvL/giCSP+Cun/BOoxviQ/tY/CQMrlkTyj4lswdsieYzSMpkAiaNIyVRWlCyMYwD/AGqKKKKACiiigAooooAKKKKACiiigAooooAKKKKACiiigAooooAKKKKACiiigAooooAKKKKACiiigAooooAKKKKACiiigAooooAKKKKACiiigAooooAKKKKACiiigAooooAKKKKACiiigAooooAKKKKACiiigAooooAKKKKACiiigAooooAKKKKACvlL9t39sb4Q/sBfsw/E79rX48J4tk+FPwnHg3/hKY/A2iW3iLxSf+E7+IHhT4a6IdL0e81PR7W8K+I/GOkNeebqNsLfTheXSid4Vt5fq2v5AP8Ag5Y/4Km/sAfEP/gmx+3f+w94N/aV8I63+1XY+J/hF4Luvg1Donje28QR+Jvhn+1P8I9f8c6Uuo33ha18NzSeH9H8K+INQnnh1uS0uoNMm/s+4u3eBZQD/NE+KviXS/GfxM+IPi7RbZrTSfE/jbxb4g063eE2zRafrPiHUtSsI3tzcXRgeKxubeKSJrm4ZZEffcTuWmf0X9lb9ozxr+yT+0T8Ff2lfhzpfhTW/HfwL+I/hz4m+D9K8dafq+r+D77xB4bvre90+DxDpmi694b1S50xpoI3uE0vWtI1BxGqw6jAQjx+AqqkevPXkUbSHUqOhB698/WgD/bb/Y6/a2+I/wC0F+yL+yx8e/GmmeC9M8Y/G/8AZx+B/wAXvFmm+G7PW7Lw7p/iX4lfDLwx4z12y0Cy1K/1vUbTRbTVNauoNLtb/WdXvbexjgiutTv50kupSvkz/gmO0n/Dtn/gnt/2Y9+yd3/6oL4B96KAP3LooooAKKKKACiiigAooooAKKKKACiiigAooooAKKKKACiiigAooooAKKKKACiiigAooooAKKKKACiiigAooooAKKKKACiiigAooooAKKKKACiiigAooooAKKKKACiiigAooooAKKKKACiiigAooooAKKKKACiiigAooooAKKKKACiiigDH8Q+INF8J6BrninxJqVto/h3w1o+p+INe1e9fy7PStF0ayn1HVNSu5AGMdtY2NtPczuAdsUTtg4xX+JL/AMFX/iL4G+Lf/BS/9u74n/DDxVo3jj4dfEH9qT4y+LPBfjHw5epqOgeKPDOueN9V1HSdb0e/iJivNN1G2liurS4iPlyxOrJ8pr/Zk/bGAP7Iv7VAIyD+zj8cAQeQQfhl4nyCK/wmJOWyeSVQk9ySikk+pJJJPUk5NACr90/j/KhWbcvP8Q7D1oX7jfj/ACpqffX/AHl/mKAP9i3/AIJj/wDKNn/gnt/2Y9+yd/6oXwDRR/wTH/5Rs/8ABPb/ALMe/ZO/9UL4BooA/cmiiigAooooAKKKKACiiigAooooAKKKKACiiigAooooAKKKKACiiigAooooAKKKKACiiigAooooAKKKKACiiigAooooAKKKKACiiigAooooAKKKKACiiigAooooAKKKKACiiigAooooAKKKKACiiigAooooAKKKKACiiigAooooAKax425Ks2VUgfxbWbglWUEBSfmBHHIOQC6vwo/4OSvjR8Xf2fP+CQH7S3xX+BXxN8dfB74neHtd+BVtoHxB+GvijWPBnjPRbfXPjz8N9F1mHSvEmgXdhq+nx6rpF7eaXqC2t3ELywuri0nDwTSIwB/L1/wWC/4O0b345/CnW/2dP+Ce/hb4y/APV7zxLeeHfiz8Wfix4Y+Bus3fjH4dXXhL4jeC/iF8KbH4e38Hxd0vR7PXNW1fwjq9l8QtK8T6V4qtotE1GzsrLSUuS17/AAyE5/ID8gB/Srt3e3mpXN3qGoXVxfX97PNdXl7dzSXN1d3M7GSa4ubiZnlnnmkZpJZZHaSR2Z3YsSao0ALkgY7GlT76/wC8v8xTacn31/3l/mKAP9i3/gmP/wAo2f8Agnt/2Y9+yd/6oXwDRR/wTH/5Rs/8E9v+zHv2Tv8A1QvgGigD9yaKKKACiiigAooooAKKKKACiiigAooooAKKKKACiiigAooooAKKKKACiiigAooooAKKKKACiiigAooooAKKKKACiiigAooooAKKKKACiiigAooooAKKKYHyQMdT6/8A1qAH0UhbBA7kj9e9LSbS3AKKKKE09UAUUUUwCiiigAooooAKKKKACiiigAooooAKKKKACiiigAr+Mz/g8E/4KE+EvhR+yu//AATtv/h94j1Xxh+1P4U8E/E7QfiJZ6rpkXhvwxZfC744+Fdb1DS9Y0ieIandXOpweFriKzurK48uGa7hE9u8YeWP+zOv83n/AIPcv+Tuf2Kv+zcfGn/qzbugD+I7JAx2NJUpVcHjse5qKgApyffX/eX+YptOT76/7y/zFAH+xb/wTH/5Rs/8E9v+zHv2Tv8A1QvgGij/AIJj/wDKNn/gnt/2Y9+yd/6oXwDRQB+5NFFFABRSNnHy9c+39aUdBnr3oAKKKKACiiigAooooAKKKKACiiigAooooAKKKKACiiigAooooAKKKKACiiigAooooAKKKKACiiigAooooAKKKKACiiigAooooAKKKKACocFeTngbjgEnA64AySfQAEnoBmqsmqWEWqWuiyT7dSvbC/1O2tvKmPm2OmXGnWt9P5yxm3TyLjVtPj8qSVZpftG6GORIpmj/AJwP+C+P/Bd74T/8E2fhL4++A3wp8Z3moft4+NPCC2PgjwzoukXEV/8ABrSvHvg7x0/hP4+anqPjDwB4l+F/izTPDfizQdEsj4Aa+l1/U5tZtryayj0e01CeJKUZX5ZKXLJxlZp2kt4u20l1T1Q+V3WjWl9dFZ9fTTc/pKyGKsuSCFPQggE5GQQCPxA5BHUEB6sHUMMgHsylW691YBh64IBx1Ff4qPi7/gtX/wAFYfHPxBs/il4g/b+/aZj8XWFzrl3ZS+HPiLqfgvw7Yv4jhNvq8Vj4G8Fnw94HtLOS3Yw2WnW3h+Cw0mMImkQaeEQr/dB/wQw/4OW/hH+0d8LrT4Q/8FEPj34P8B/tTr4x1m38M6/rHhaD4e/D7xZ4GS38AaB4N0UeJ3vrjTNb+KGteJtZ1yefTraODUdTto3vvskcFtNKHZPdXEf2IUU1WDqGG7Bz95WRuCQcq4VhyO4GRyOCKdRa2wBRRRQAUUUUAFFFFABRRRQAUUUUAFFFFABRRRQAUUUUAFf5uv8Awe3yxyftdfsWbHVtn7OnjSNtpztcfEy7JU47jIz6V/pEk4BJIAAySegx3PsK/wASv/gsDe317/wVX/4KPnUJLmY237cP7U1naC8klmMFhbfG7xulrFbGa1tDFaBMyQQxxNCokYpc3+439yAfnGeh+h/lUFTnofof5VBQAU5Pvr/vL/MU2nJ99f8AeX+YoA/2Lf8AgmP/AMo2f+Ce3/Zj37J3/qhfANFH/BMf/lGz/wAE9v8Asx79k7/1QvgGigD9yaKKKAI5mKRuyhSyqzLvbamVUkbmOABxySQB1JGM08cAA5JAGSevTv70MAwKnoQQRgEEEYIIIIP0IIPcEcUihgqhjlgoDEd2xyfxPNRb37+98L7ci+Gy3u5aN3ta2l9B9Om/bV6d9rK3r69HUUUVYgooooAKKKKACiiigAooooAKKKKACiiigAooooAKKKKACiiigAooooAKKKKACiiigAooooAKKazBFZjuIVSxCqzsQoydqIGd244VVZmPCgkgUhkQdW9eMHOA2wtjGdqsfmfG1R8xIXmgB9FeW+Pfjl8FPhVdWdj8UPi/8L/hve6jby3mn2fj7x/4U8HXWoWkDvFNd2MHiLVtOlvLaGWOSKWe3WSKOWOSN3V0ZR+Zvxy/4L2/8ElPgf4G8ReLbz9uj9nnxzq+lW+qW+j+CPht49tviL4o1/xJaaLqWraboH9mfD608W3+hwarcad/ZDeJdbsbTw3pWpXdpa6pqVtc3NvBMAfsJRX+Yh+2L/weLft9fEr4paHqn7H2g+Af2a/hD4U1qa/i8LeIvBvhr4peL/iXp11peiRNonxT1rxXZapZ2Fjp2sWWt32ly/Chfh/q50/WorHVdX1Gexiu49r9n/8A4PRP2+/BWrf8ZC/A39n346eG5b157i38NWPiX4PeKobM2fkxWWla7Y6l4y0GHyr0JfStqng7VJb2Ez6el3pnmQX9sAf6abMqkAnk5xwSTgZIAGSTjoBye1IHU/3h1+8jqPlxnJZQB1GM9ecZ2tj/ADG/24v+DxD9tP44S+NfBn7Jfw+8Cfs0fDHXNNTS/D/ifVbHUfFnx50ldS8KWOn61qUfitPEKeDtL13TPFcmsax4N1XRPCdpNpen/wBlxaiuo6jZvdz/AIa6p/wWo/4Kxat408OeP7z/AIKCftRP4m8KWl/Z6LNB8UNcstHjg1K2vbO7GoeFrKW38La5K1vf3SwXGuaLqNxZu6TWcsE0FvJEAf7V4dS20HJ5zgEhSApKsQMK2HUhGIZlyyghWI81+MHxU+H/AMFPhl46+K/xT8Z2Hw7+HXw88Naj4r8a+OdUKrp/hXw9pULXOo6xd77S+DQ2dujSSqLS5cKV/ckumf8AH5tP+Dhz/gtDZeFbTwbD+338Wn0ey16HxHDc3eifDO/8TvqEEH2eO2u/G994FufGt/oBT55fCl94gufC89xm6n0eS6Jmrwj9p7/gsL/wU4/bH03W9A/aH/bQ+M/jLwp4ls59N8ReBNC1fTfhh8Odd0y60+00y60rWPhz8KNL8D+BdS0q5tbKA3GmXnh+axnvGutRlt31G+vbq4TV0072aa0bT17NNNPs001uncadmmrXTT1Sa07ppprummns1Y/sW/4KTf8AB4Z8N/h54zn8I/8ABOf4U6d8Y/FXhSHxf4PuPjt8bRq2mfCp7qDx34XW41Twp8N/DF1pvij4ieF/FPh3wnqE/h/Xrvx18M7rTp9a0rVLjQdSt7G50e//AIAPif8AFn4h/GTxbq3jj4l+L/EPjLxLq9zcSzan4k1vV9fu4Laa7ub2LTbW91y+1LUI9MsZLuWPT7N7yVLS3IijOASfPnBY568AZz6cd/bFM2N6fqP8aFGMb2SV3d+b7t9X5vVhd6vq97afl22XZaIenK8/T8MVPbXN3Y3EF3YTzWd1azwXVtd2srQXVtdW0glt7i2uY2WeCaGVUlikidGSVI5FIeNGWFAQOfWnUxH74/sr/wDByv8A8FYv2SPht8N/hH4C+NPhPxd8O/hld39xY+HPi38NvDvxBvvFNvrHinX/ABdq2neLfHl2tj8TdRtL/UvEFxbSXFv42stVsNKt7Cw0PUdLgskik/WP4Hf8Hsn7ZPhzVyf2jP2S/wBnn4raBLcSE2/wl1zx98E9btbVrOSGEQaj4o1H43adPPBqDR30hn0dY7y1hfSl/s+S5GsWv8VdIVB6igD/AGDv2Jv+Djz/AIJXftva7aeCPDfx7i+B/wASb6BJbPwN+0nBpfwgGsXX9seHtCh0Xwd421vVX+H/AI08Sa3rXibT7Lw34L0XxRJ8Qdcsor7U7bwbHbaXqk1v+8CyI33WDdOQcg5AIwRkcgiv8Be3mmtJorm1lkt7iCQSwTwu0U0Mq4KyRSoVkjkQgNHIjK8bgOhVhmv6dP8AgkP/AMHN37Vn/BPOx8IfAv41afD+0h+yN4atNRsNB8AnSvCnhv4mfD9b+fx54nupvA/xA03R9L1PxFfeJ/iF4r0vU/E8/wAWtR8crb+H9LutO8LDQ7m6WYAH+rvRXwr/AME9/wDgoZ+z5/wUs/Z+h/aL/ZyvfEt34Lh8Xaj8Ptat/E/hvUfD+paT430TQ/D2u69owgvExfWmnQeJbCGPWbZjp9+4le3cKpUfdIYMMjPbggg8gEZU4IOD0IBHQigBaKKKACiiigAooooAKKKKACiiigAooooA5Px1478EfDHwf4j+IPxJ8Y+Fvh74D8IaRea94s8b+N9f0rwr4R8L6Hp8LXF/rPiLxJrt5p+j6LpVjAjTXeoalfWtpbxKXmnjXmv8R7/gqF4v8IfEH/gpR+3/AOPfh94i8PeMfAnjX9tH9p7xX4N8YeEdY07xF4V8W+G9f+NXjXU9I8UeG/EOkIuk69oWv2dzFqul6zpkt7p+pWd1Dd2ep6rbSx6ldf63X/Bb/cv/AASM/wCCiskZcS/8MnfFcLtZshF0C580qucL8j/vGUAsAm4ny02/4rZJPUk8AcnPAGAPoBwB2HFAEgJKtn3/AJVFUi/cb8f5VHQAU5Pvr/vL/MU2nJ99f95f5igD/Yt/4Jj/APKNn/gnt/2Y9+yd/wCqF8A0Uf8ABMf/AJRs/wDBPb/sx79k7/1QvgGigD9yaKKKACiiilZXv1AKKKKYBRRRQAUUUUAFFFFABRRRQAUUUUAFFFFABRRRQAUUUUAFFFNVg4yuSM4zggH3GQMj0YZB7GgB1FBOATzxzwCT+AGST7AZPamh1I3A5BXeCoLZXGcjAJPBHAyeRxyKAHUVzPinxp4Q8DaBeeK/G3inw94O8L6b9l/tHxH4q1jT/Duh6eb3ULXSbNL/AFXWLizsbOS71W+stMto7meKSfULu2sole5njib88Pj7/wAFjf8Agmh+zFqOsaf8af2zfgD4bm0zQvD+tQaVoXxB0z4geM9T/t4eK5VhsvAPw/TxN4qktrW08MJM2qrp0mmmfV9Os7maznurAX4B+mtISB1IHIHPHJOAPqSQB6k4r+Ij9vf/AIPMP2dfBnhvU/B//BPz4W+MPjP8QLzTtW06L4s/FfTj8N/hv4U1O40jTptB8R6F4SuLfW/F/wASUsdVvL6z13w1rlp8KbZptHkfSfE2q6dfWd6/8cX7an/Bbn/gpx+3lesnxx/al8eaf4MEVxBD8KvhLeH4QfC8WkutLr9pa6z4T8BNosXjeTQ7+Gz/ALA1f4h3Pi7xDpUen2bwaybpZrqcA/2JPG/7Tn7NnwztLG/+JH7QfwQ+H1jqniKw8IaZeeN/it4E8KW2peLNVtJr/S/C9hPruvWEd74i1Owt7i+07RbZpdSvrOCW6tbaWCNpB8Eftu/8Fvv+CZv7AkBtPjp+074U1Dx2V1WO2+EnwiWT4u/EyTUdLs9C1FtK8QaB4Jj1e3+HVzfaf4i0m90W6+KGqeBtK1u1uJX0rUL428wh/wAXl7m4nkmnnlaeaYu8002JppZG5Z5JZA0js5JZ2ZiXf52Jbmol+Ylmwe3QAdD2GBxnj07UAf6Ev7T3/B7b4J07UdT0P9j39jPXfFllBPc29h8Qf2gfHFr4Vtr9FXVraO7i+GvgWy8QXv2aSVNE1O1e9+IWn3VxaT6lpd7pWmXKW9+v8yX7Yn/Bw3/wVf8A2yNe8T3HiH9p7xN8E/AHiqG1hf4N/s13es/CX4f6NapoGmaDqWnW2oW2sap8S9Zstck02XXdTtfF3xD8T20er6xqY0lNL0t7TSbH8SNq+n6mnUAa3iLxF4g8Wa9qvinxRrWq+JPEmuX1zqut6/r1/c6vrGsaneSvPeajqmo6hLcXmoX13O7zXN3dyzTzzO0ssjuxY4e9sYzwCCOBxjccKcZUZYkqMKSckEgYlPQ/Q/yqCgAooooAKdvb1/Qf4U2igB29vX9B/hRvb1/Qf4U2igB29vX9B/hRvb1/Qf4U2igB29vX9B/hRvb1/Qf4U2igB29vX9B/hRvb1/Qf4U2igB29vX9B/hRub1/Qf4U2igD6G/Zh/ar+Pn7HPxY0r40/s6fE3xf8LvHmnxRabf6p4Q8Sa94Zk8S+F21jSNb1TwX4ju/Dmp6Rql/4T8QXehaYuu6THqFsL2O1iYTRTwwzxf6BX/BNf/g8T+C3xhl8MfDL/goZ8ONM+APj+8vLfTJ/jZ8L59RvPghq13rHiXWUt7zW/B3ivUtW8X/DHQfC3hhvD0Osaq/jv4lXWu6umq6raaXolhPDpOnf5t9FAH+5f8MP+Cif7A/xpufDun/Cj9tH9lvx9rXizSV1zQPDPhv46/DW/wDF9/pn9nT6tLcHweniQeKLR7LTbW6vNTtb7SLa70qG1uTqUFqbeYJ9hxXEE0ccsU0ckcoDROjBllVgzK8ZH30dFZ0dcq8Y8xCU+av8A9nZtu5mbaoVdxJ2qOQq5zhRzgDgZOOpr9Kv2Qf+Cvv/AAUi/Ydvrub9nX9rr4qeF9IvtNvdJl8C+LtSi+K3wugTU73Q9Qvda0/4XfE628X/AA/0vxXJL4a0m0Xxdpvhu08Ux6b9s0uHWYtN1LU7a5AP9ssEHpS1/mHfCL/g87/4KL+APh54c8JfEb4O/s6fHTxnpCakut/FPxTo/iPwbr/itrvWdQv7GTUPDnw21Pwp4J0x9L0u6stDgGh+H9PjurbTYL29jm1K5vbib+2H/gkb/wAFmf2Zv+CpvwV8H6r4b8ZeF/B37TFn4at/+Ftfs9arrnhbTPHGn+IfDfhfwNP8SPG3gLwPB4x8T+MdR+A8HjHxcdC8IePdeisp754GsdYtdN1eGaxQA/ZCiiijv5f8OAUUV/L7/wAHCX/Be+z/AOCZngy1+CH7NWr/AA08eftXfEDTvGXh/XTp3xQ8EXnjn9kzV4vC/gfxT8PfG3jj4N6l4O8ftrkfjPSPGqav4d0Pxpa+FdM1fSrFb+0vb22u1kiAP6gqK/ypPgZ/wd+f8FcPhrq3n/FHW/gd+0Zo8txPLLpfj/4RaB4KvI0lsjbW9tYaz8G5PhvFa29teeXqLPqGlavcTsJrRrmK3miaz/tV+Bv/AAc4/wDBHn4q/Crwh498YftT2PwV8T6/aXx1j4ZfFHwT4xsPGvhy+03V9Q0aT+0YPBumeO/DK2OsnTxrvh6Sy8W6nO3h3VNKbWV0zW/7S0nTwD9zviR8Tvht8HPBmtfEf4u/EHwT8LPh54bSxk8RePPiN4q0PwT4M0FNU1Sx0TTG1rxR4lvtM0TSxqWtanp2kaf9uvoPtuqX9lp9r5t3dQwvy/8Aw0L8Av8AhO7T4W/8Lw+EA+J1/wCEdO+IFj8OT8SvBg8eXngLV7yPT9J8b2vg860PENx4R1S/mhsdO8Sxac+jXt3LFbW17LNIiH/Md/4OH/8AgvnN/wAFCvFWq/s4/sqeM/iN4f8A2VPDl74r8C/E2xuLrRW+Hn7Sh8HfFHSfFPwy+J2j6ZJpkXiXTNJhuPDFhrmjQ6u1hqfl/wBnyXVpA32m3r+XO68deNr3XtJ8U3njDxRdeJ9Bk0yXQ/Ec+varLrujS6LNHcaPNpWrvdG/0+bSriGG406W0uIpLKeKOa2aORFYAH98X/B31/wU+8LG38FfsLfs3/tM+OdC+KXhDWvGnh79s34O+Ebb4neD9G1PwL8Q/h98OfFfgPQfGmu3Og6P4C+IujarpGsyXv8AZGheIfEyaW19dWWs22n3bXVqP8/Ou5+JPxP+JXxl8a638Svi/wDELxx8VfiN4mexfxJ4++JHizXvHHjXxA+l6ZZaJpr634p8TX+qa5qr6fo2m6dpNi19fTm00ywsrCAx2trBEnDUALkgY7GkoooAKUHBB6YIOev6d6SigD+l74Ef8HS/7ff7PvwP+DXwE8G/B/8AYx1Pwh8EPhV8PPhD4V1LxT8Pfjve+JtQ8N/DXwjo/gzQ77xFeaR+0Rouk3eu3el6Laz6vc6Xo+k6dPqElxLZaZYWzxWsRX80NFAH+/sDuBxxzjP9aXIzjPOP8n/PTI9RWTq2taR4d0q91rXtV03RNH0+F7m/1bWL620zS7CBAN09/qN5JFa2dupwGmnkRFyMnJAP+bN/wXu/4OT/ANo34h/HL4nfsmfsN/E34p/s4/DX4QeNfHnwc+KfjjwV4k0HRPFnxH8d/CL4walp1n8QPhN8Wvh1dW/jzwv4K8R23huOB7bTvFFjbeKPDN89nq2mvaX13b3BZrv8/wDhkJa2fWyv+f6n+lerBhlTkZI7jp357Hqp6MpDKSpBK1/kRfsff8HPX/BWf9kTRo/C8/xst/2nfCJv72+n039q9fE/xh8UJPqd9pd1ez2PxT1DxTZfFCNobTTZdM0bStR8W6p4R0WDVdSuYfC1xqEsF3a/vx+z3/we46CdL8QD9qr9jTV11s6hbHwsf2f/ABPZSaWNMaKT7ZHrw+ImsQ3f25Lgwi0fTz5DwLK06rKUFAz++Wiv5BPAX/B6B/wTP13SLm68ffBr9rjwDrK6nNbWulWPgj4beMraXTVtbOSDUpNTtPiro+x5Lqa8t3shZ+akdmk4kb7SqJ9f/C7/AIOsf+CMXxIi8OJqPx+8f/C3V/EF/wD2fJoPxO+CnxD0+fw8P7SfT49Q8TeIfCmheLvAtjYTQomsNd2fi6/is9JuIn1AWN/HeafaAH9HlFfl94A/4LX/APBI74lWuoXnh3/go1+yFp0WmXENrcp4/wDjb4L+E91LLPE8yNp9j8UtS8G3ur24RCJrvSre9tLeUpBPNFPJHG1/xv8A8Fnf+CS/w+0m21rXv+Cjv7GmoWd3qMWlRQ+B/wBoD4c/E3VVupra7u0kuNB+G2veLNctNPEVlMkur3enQ6Tb3L2dlPex3moWEFyAfplRX5Nav/wXZ/4I+aJ4c8OeKbz/AIKHfs0TaZ4pbUU0230nxymv+IbRtLuPs1yPEvhHQrTUvFngzzpMvph8X6LoQ1m2VrzRzfWiNOO18Df8Fm/+CTPxC0ebXNB/4KOfsa6dZQX8umvD46/aA+HPwv1d7iG2tLp5bfw/8S9e8Ja9daeYr2FItWttNm0qe5S7soL2S8sL6C2AP0wor8vfiD/wWw/4JIfDO30258Rf8FFv2RtTTVnvUtF+H3xq8G/FiaNrCO3kn/tKD4W6l4xl0RXW6iFpLrSafFfP5yWUlw9tciH4E+Jv/B1v/wAEYfh1F4kXTvjv8Qfihqfh3U5tLTRvhv8ABL4j3M/iGW21hdKuLzw1rnjHRvBngvU9JWAvrdtqr+Kray1LRoZJdMlvLyWysbwA/o9or+Se7/4PMv8AglRFBrElp8Pv2v7ue0iB0a3b4XfD62/tm4azM2yaZvi5Iml26Xm2yknkF1KAWuY7SVFVH+c/+I239jjzHx+x9+0yI2f5Q2u/CzdGoVVwrLr7ZBKmQ71dgzsgJQJgA/tkpCcAk9AMnAJ6ew5P0HNf5+XxI/4PidZmj8SWHwh/4J36Vp8sWqTR+EPFXxJ/aPvNWju9Fg1QCC78R+APC/wa0drPVdV0RS0ul6b8S7uz8P6pNtTWvE1pZ/8AEx/Mn47f8HhP/BV34l64ZfhI3wE/Zz8NQ3Sz22meFfhdZ/EHV7mE6TaWlzY61r/xVm8XWl7aHVIbzVbCTSPC/h2+gF6lhe3N9b2wZwD/AFQVljY4Vgen0JPQA9CSMHAJO1kb7roTzeveNvBvhaC+ufE3izw34et9MsZtT1GbW9c03SksNOt4Hubi+vGvrmD7NaQ28Uk8txNsiSKN5GYKpI/xuvib/wAF/wD/AILGfFW38VWOvft//HTQLHxXqD315D8MdV0v4Sz6ZjV01mG08La38N9H8K+JfC2nw3EUdqttoesaeZ9JEmj3xudNubu1n/J/xj488c/EXXH8TfEHxl4q8eeJJo0gl1/xn4h1bxTrU0KSzTpDNqmu3d/eywrPcTyiKSdoxJPM+3dK5YA/2Svjt/wX1/4I9fs66rHoHxI/b0+D8+szyrbiz+Fdp43+PstrLNp9vqULag/wJ8I/Ei30uKWzu7eSG51SW0tJJHNuJWnjlhT8sv2g/wDg8S/4JjfDnwr4uu/gRpHxj/aL8c6LqS2Hhnw43gzVPhJ4V8Z2w12CxudctfGvizTtQ1XQtNTRTda7ptprfgKHWL9Us9N1Cx0S9nufsn+W0zP93OAQuVUBQdqhQSFABIx1OSWLN95mJjoA/vW8af8AB8N4xbWifh3/AME9/DMPh0WsAC+Nv2gdVu9aa+zIbpvM0H4WWNitngxLbRmFrgBXaaVywC+U6l/we8ftRy+KPD15pH7EHwCsfBVtFqK+K/Dmo/EL4iap4p1qeWzuU0mbw740trfR9I8MRWWoNaXGo22p+AfFzanaQ3FnbXWkzXUd9Zfw/wBFAH9cPxM/4PMv+CpXjHSV0zwT8O/2S/hLcDULS9bxB4X+G3jvxDr72sSX6XWjuPiB8UfFfhwWV19ospDcxeG49Tjn04SQ38UF5NaJ8TeLf+Don/gtt4j8Rapremfth2/gqxv5IHg8M+FPgR+z4fD+mCG0t7Vxp48T/DHxJrai7kge/ulvNavQL26ufspgs/ItYf596KAP3lP/AAc2/wDBcQgj/huzW+QRx8Cf2X0PI7OvwV3KfRl5U8jkV8TfFn/grR/wUz+OXhq48G/FX9ur9p3xb4Tu7qa6u/Dtx8WvFem6PdNcafqOlXFvc2Gi3+m29xp0+m6tqNjNpMyPpctrctDJZsiRBPzzooA3bvxR4lv7aayvfEGtXdlcMGms7nVL2a1lKypOu+2kmaFgs0ccyqUwssccigPGhGKHYHcD82CM4HQgqc8c7gTuz1yScmmUUAKSSc8Z68ADml3N6/oKbRQAuSBjsaAxHQ0lFADt7ev6D/Cje3r+g/wptFADtzev6Cm0UUAFFFFABRRRQAUUUUAFFFFABRRRQAUUUUAFFFFABRRRQAUUUUAKTnk16z8E/jp8W/2dfiFoXxQ+C/j/AMW/DrxpoN5Yzw6v4R8R634cn1C0s9W0zWn0LWJdDv8ATp9U8PajfaPpz6tol1M+n6klpCt1DJ5UZTyWlHUfUfzoA/0gP+CUv/B3X8HviPo3gb4Lf8FH7YfDL4rSX7aHeftH6KtlbfCnxfqHiLxv4hk0jUfEvhG10exX4S6D4R8H3HhjTNc1+78TeI7fU7211DW2s9Nhmmgs/wBhP2qf+Di7/gld+z/8M5fjH4T/AGqPBP7RE3hSawSb4Ofs/wDizwx4j+JfjAeJtR0TQ4DpOia/4g8MaTcR+HIdXm8S6z9u1K3l0/TdI1FlBvYP7Puv8f1iQxIJHHbjj8Pel8xyFQsSgfeFPIDNgM31YAZ9cAnmi39f16ID+tH/AIKgf8HY37XH7Ymi23w2/ZH0PxD+xN8O7PXNL8R/8J14I+JHi+1/aG1S4stJ8XaFqPh7UfHfhLWvDnhq18F61beINN1yTRbHwodY0zxFoWl3Ft4quRp6XFx/LX8U/i18Vfjn461z4o/Gz4mfED4w/EzxMNMHiT4ifFLxl4i+IHjrxCNE0fT/AA9o39ueLfFmpatr+rf2ToGk6Voem/b9QuPsOkaZp+m23lWdnbwx8Keh+h/lUFABTt7HBOCR3KqSeSfmJGWOT1bJxgdAAG0UALk8+/XAA/ToPwxSUUUAFFFFABRRRQAUUUUAFFFFAH9qX/BwD/wctyftRaf4v/Y9/YF8Yalp37Pmrabr/gv4xfFRND8Oap4c/aV+H3j7wT4Xnm0HTvDnxR+FFj8SPhfc+Cden8R+H7rVND1LQNT1W4W7uEubmxTSriP+K/JLAkknI5JyfzNTCIyKJGcksWJJBJJz1JLck9fX604W/wApbfyD/d+n+1j9KLha2wxhkfy+tRhWyOO47in4b+9+gow3979BQAp6H6Godx/PHYdun4+/pkdDUu1jxu68dB3p3kf7f/jv/wBegCFXZSSMcqykFVYEMCp+VgRkZyrY3IwV0KuqsBXZM7WI3BlOO6spUg/VWI/HPXFTeR/t/wDjv/16PI/2/wDx3/69AERkkYrl2O0jYCSQpwoG0HgcKowABhVHQCgqeOO3PPfv1NTCDkfP3H8P/wBlU32c/wB8f98H/wCLoAoncPlOQDgkZ4JGQDjpkZOPTJ9aVmLszscszFmPqWOSfxJqy8HPL9v7v1/2jTPI/wBv/wAd/wDr0AV6KseR/t/+O/8A16PI/wBv/wAd/wDr0AV6KseR/t/+O/8A16PI/wBv/wAd/wDr0AV6UdR9R/Op/I/2/wDx3/69KIOR8/cfw/8A2VADSoPUUmxfT9T/AI1Z+zn++P8Avg//ABdH2c/3x/3wf/i6AKpVcHjse5qKrxgOD846H+D/AOzqHyP9v/x3/wCvQBXoqx5H+3/47/8AXo8j/b/8d/8Ar0AV6KseR/t/+O//AF6PI/2//Hf/AK9AFeirHkf7f/jv/wBejyP9v/x3/wCvQ3bVgV6KseR/t/8Ajv8A9ejyP9v/AMd/+vSUk9mBXoq0LbIJ39M/w+g/3qb5H+3/AOO//XpjaatfrsV6KseR/t/+O/8A16PI/wBv/wAd/wDr0nJLRv8AMRXoqx5H+3/47/8AXo8j/b/8d/8Ar0wK9FWPI/2//Hf/AK9Hkf7f/jv/ANegCvRVjyP9v/x3/wCvR5H+3/47/wDXpOSWjf5gV6KseR/t/wDjv/16PI/2/wDx3/69MCvRVjyP9v8A8d/+vR5H+3/47/8AXobtqwK9FWPI/wBv/wAd/wDr0eR/t/8Ajv8A9ekpJ7MCvRVjyP8Ab/8AHf8A69Hkf7f/AI7/APXpt21YFeirHkf7f/jv/wBejyP9v/x3/wCvU80e/wCDAr0VY8j/AG//AB3/AOvR5H+3/wCO/wD16OePf8H/AJAV6KseR/t/+O//AF6PI/2//Hf/AK9HPHv+D/yAr0o6j6j+dT+R/t/+O/8A16UQcj5+4/h/+yo549/wf+QDGAIJ7gGoh1GOueKuNAQPvjnj7n/2Rqv5eD97ofT0/GkqkWr3/P8AyQ0rv+tvmId+Dnp36VHU2D6g/h/9fFN8v3/T/wCvT549/wAH/kW6bVrJ693H9GR0VJ5fv+n/ANejy/f9P/r0c8e/4P8AyJ5JdvxX+ZHRUnl+/wCn/wBejy/f9P8A69HPHv8Ag/8AITTW5HRUojyQM9T6f/Xp/kf7f/jv/wBemmnqu9hFeirHkf7f/jv/ANejyP8Ab/8AHf8A69Nu2rAr0VY8j/b/APHf/r0eR/t/+O//AF6SknswK9FWPI/2/wDx3/69FMD/2Q==;" parent="1" vertex="1">
          <mxGeometry x="240" y="160" width="394.86" height="189" as="geometry" />
        </mxCell>
        <mxCell id="DdOHN27BAVobAzTbsbA9-2" value="" style="endArrow=classic;html=1;rounded=0;exitX=0;exitY=1;exitDx=0;exitDy=0;strokeWidth=1.5;" parent="1" source="DdOHN27BAVobAzTbsbA9-1" edge="1">
          <mxGeometry width="50" height="50" relative="1" as="geometry">
            <mxPoint x="540" y="230" as="sourcePoint" />
            <mxPoint x="240" y="146" as="targetPoint" />
          </mxGeometry>
        </mxCell>
        <mxCell id="DdOHN27BAVobAzTbsbA9-3" value="" style="endArrow=classic;html=1;rounded=0;exitX=0;exitY=1;exitDx=0;exitDy=0;" parent="1" source="DdOHN27BAVobAzTbsbA9-1" edge="1">
          <mxGeometry width="50" height="50" relative="1" as="geometry">
            <mxPoint x="540" y="230" as="sourcePoint" />
            <mxPoint x="660" y="350" as="targetPoint" />
          </mxGeometry>
        </mxCell>
        <mxCell id="DdOHN27BAVobAzTbsbA9-4" value="" style="endArrow=classic;html=1;rounded=0;exitX=0;exitY=1;exitDx=0;exitDy=0;strokeWidth=1.5;" parent="1" source="DdOHN27BAVobAzTbsbA9-1" edge="1">
          <mxGeometry width="50" height="50" relative="1" as="geometry">
            <mxPoint x="240" y="349" as="sourcePoint" />
            <mxPoint x="660" y="350" as="targetPoint" />
          </mxGeometry>
        </mxCell>
        <mxCell id="DdOHN27BAVobAzTbsbA9-5" value="intensité des pixels" style="text;html=1;align=center;verticalAlign=middle;resizable=0;points=[];autosize=1;strokeColor=none;fillColor=none;fontStyle=2" parent="1" vertex="1">
          <mxGeometry x="371" y="348" width="117" height="26" as="geometry" />
        </mxCell>
        <mxCell id="DdOHN27BAVobAzTbsbA9-6" value="0" style="text;html=1;align=center;verticalAlign=middle;resizable=0;points=[];autosize=1;strokeColor=none;fillColor=none;fontStyle=1" parent="1" vertex="1">
          <mxGeometry x="225" y="349" width="30" height="30" as="geometry" />
        </mxCell>
        <mxCell id="DdOHN27BAVobAzTbsbA9-8" value="255" style="text;html=1;align=center;verticalAlign=middle;resizable=0;points=[];autosize=1;strokeColor=none;fillColor=none;fontStyle=1" parent="1" vertex="1">
          <mxGeometry x="615" y="349" width="40" height="30" as="geometry" />
        </mxCell>
        <mxCell id="DdOHN27BAVobAzTbsbA9-9" value="Nombres de pixels" style="text;html=1;align=center;verticalAlign=middle;resizable=0;points=[];autosize=1;strokeColor=none;fillColor=none;flipV=1;rotation=-90;fontStyle=2" parent="1" vertex="1">
          <mxGeometry x="173" y="259" width="114" height="26" as="geometry" />
        </mxCell>
        <mxCell id="DdOHN27BAVobAzTbsbA9-11" value="&lt;div&gt;beaucoup de pixels&lt;/div&gt;&lt;div&gt;avec des tons clairs&lt;/div&gt;" style="text;html=1;align=center;verticalAlign=middle;resizable=0;points=[];autosize=1;strokeColor=none;fillColor=none;" parent="1" vertex="1">
          <mxGeometry x="485" y="160" width="130" height="40" as="geometry" />
        </mxCell>
        <mxCell id="DdOHN27BAVobAzTbsbA9-13" value="&lt;div&gt;peu de pixels avec&lt;/div&gt;&lt;div&gt;des tons sombres&lt;/div&gt;" style="text;html=1;align=center;verticalAlign=middle;resizable=0;points=[];autosize=1;strokeColor=none;fillColor=none;" parent="1" vertex="1">
          <mxGeometry x="240" y="160" width="120" height="40" as="geometry" />
        </mxCell>
        <mxCell id="DdOHN27BAVobAzTbsbA9-15" value="&lt;div&gt;un certain nombre de pixels&lt;/div&gt;&lt;div&gt;avec des tons moyens&lt;/div&gt;" style="text;html=1;align=center;verticalAlign=middle;resizable=0;points=[];autosize=1;strokeColor=none;fillColor=none;" parent="1" vertex="1">
          <mxGeometry x="350" y="210" width="170" height="40" as="geometry" />
        </mxCell>
        <mxCell id="DdOHN27BAVobAzTbsbA9-16" value="" style="endArrow=classic;html=1;rounded=0;strokeWidth=2;" parent="1" source="DdOHN27BAVobAzTbsbA9-13" edge="1">
          <mxGeometry width="50" height="50" relative="1" as="geometry">
            <mxPoint x="540" y="150" as="sourcePoint" />
            <mxPoint x="277" y="317" as="targetPoint" />
          </mxGeometry>
        </mxCell>
        <mxCell id="DdOHN27BAVobAzTbsbA9-17" value="" style="endArrow=classic;html=1;rounded=0;strokeWidth=2;exitX=0.5;exitY=1.067;exitDx=0;exitDy=0;exitPerimeter=0;" parent="1" source="DdOHN27BAVobAzTbsbA9-15" edge="1">
          <mxGeometry width="50" height="50" relative="1" as="geometry">
            <mxPoint x="307" y="210" as="sourcePoint" />
            <mxPoint x="437" y="310" as="targetPoint" />
          </mxGeometry>
        </mxCell>
        <mxCell id="DdOHN27BAVobAzTbsbA9-18" value="" style="endArrow=classic;html=1;rounded=0;strokeWidth=2;exitX=0.562;exitY=0.975;exitDx=0;exitDy=0;exitPerimeter=0;" parent="1" source="DdOHN27BAVobAzTbsbA9-11" edge="1">
          <mxGeometry width="50" height="50" relative="1" as="geometry">
            <mxPoint x="445" y="263" as="sourcePoint" />
            <mxPoint x="602" y="270" as="targetPoint" />
          </mxGeometry>
        </mxCell>
      </root>
    </mxGraphModel>
  </diagram>
  <diagram id="eiGWv3e6tRnAZdJ0YyX-" name="meth des rectangles">
    <mxGraphModel dx="1434" dy="754" grid="1" gridSize="10" guides="1" tooltips="1" connect="1" arrows="1" fold="1" page="1" pageScale="1" pageWidth="1654" pageHeight="1169" math="0" shadow="0">
      <root>
        <mxCell id="0" />
        <mxCell id="1" parent="0" />
        <mxCell id="muNE2bOqfH17zkRgkUGe-1" value="" style="shape=image;verticalLabelPosition=bottom;labelBackgroundColor=default;verticalAlign=top;aspect=fixed;imageAspect=0;image=data:image/png,iVBORw0KGgoAAAANSUhEUgAAAoAAAAHgCAYAAAA10dzkAAAAOXRFWHRTb2Z0d2FyZQBNYXRwbG90bGliIHZlcnNpb24zLjUuMiwgaHR0cHM6Ly9tYXRwbG90bGliLm9yZy8qNh9FAAAACXBIWXMAAA9hAAAPYQGoP6dpAABNCklEQVR4nO3deXhU5f3//9fs2QMJSdhCCGEH2ZVNcQFFivuCWquAiqi4ILZV6q8iflrR9lfFFaUutO5YRFstIiCLyiqLsq9hJwQCZM9kMnN//4hMCUkwYJJJOM/Hdc0V5sw5c95zcsO8uM+572MzxhgBAADAMuyhLgAAAAC1iwAIAABgMQRAAAAAiyEAAgAAWAwBEAAAwGIIgAAAABZDAAQAALAYAiAAAIDFEAABAAAshgAIAABgMQRAAAAAiyEAAgAAWAwBEAAAwGIIgAAAABZDAAQAALAYAiAAAIDFEAABAAAshgAIAABgMQRAAAAAiyEAAgAAWAwBEAAAwGIIgAAAABZDAAQAALAYAiAAAIDFEAABAAAshgAIAABgMQRAAAAAiyEAAgAAWAwBEAAAwGIIgAAAABZDAAQAALAYAiAAAIDFEAABAAAshgAInKFFixbpqaeeUnZ2dqhLAWrUSy+9pPfffz/UZQCoRgRA4Azs2rVL11xzjaKjoxUbG1ulbaZNmyabzabvv/++hquTLrroIl100UVnzX5Q6ngb2rlzZ63ut3v37ho1apTmzJlTq/utDTabTffff3+oywBqHQEQlnL8C9Rms+nbb78t97oxRsnJybLZbLriiisqfA+fz6ebbrpJI0aM0MMPP1zu9VdffVXTpk2r7tJRiwoKCvTkk09qwYIFoS6lTjj//PM1bdo03XbbbTpw4ECoywFQDZyhLgAIhbCwML3//vs6//zzyyxfuHCh9u7dK4/HU+m269ev180336yHHnqowtdfffVVNWrUSCNGjKjOklGLCgoKNHHiREmih/MnN954o4wxWr16tZo0aRLqcgD8QgRAWNKvfvUrffzxx3rxxRfldP7vr8H777+vnj176vDhw5Vu261bN3Xr1q0WqkRVBAIBFRcXKywsLNSlnPWGDRsW6hIAVBNOAcOSbrnlFmVlZZW5pqm4uFj/+te/9Otf/7rCbQKBgCZPnqxOnTopLCxMSUlJGj16tI4ePRpcp2XLllq/fr0WLlwYPNV8cg+S1+vVuHHjlJCQoMjISF177bU6dOhQuf29+uqr6tSpkzwej5o2baoxY8bo2LFj5dabOnWq0tLSFB4ervPOO0/ffPNNhfV7vV5NmDBBrVu3lsfjUXJysn7/+9/L6/VW4YhV/37mzJmj888/Xw0aNFBUVJTatWunP/zhDz9bx/Frtt57773g8fnyyy8lSfv27dMdd9yhpKQkeTwederUSW+99Va59ygqKtKTTz6ptm3bKiwsTE2aNNF1112n7du3a+fOnUpISJAkTZw4Mfh7fPLJJyVJP/74o0aMGKFWrVopLCxMjRs31h133KGsrKwy+3jyySdls9m0bds2jRgxQg0aNFBsbKxGjhypgoKCMusWFhbqwQcfVKNGjRQdHa2rrrpK+/btK7PfU5k1a5YuuOACRUZGKjo6WkOHDtX69evLrJORkaGRI0eqefPm8ng8atKkia6++uqfvZ6wqp+3Mrt27dJVV12lyMhIJSYm6uGHH9bs2bNls9nKnGL/5ptvdOONN6pFixbBdvPwww+rsLCwzPtVdt3piBEj1LJlyzLLAoGAXnjhBZ1zzjkKCwtTQkKCLr/88gqvw/3000/VuXPnYLs53qZOVNX2BdQH9ADCklq2bKm+ffvqgw8+0JAhQySVfolmZ2fr5ptv1osvvlhum9GjR2vatGkaOXKkHnzwQaWnp+vll1/W6tWr9d1338nlcmny5Ml64IEHFBUVpccff1ySlJSUVOZ9HnjgATVs2FATJkzQzp07NXnyZN1///366KOPgus8+eSTmjhxogYNGqR7771Xmzdv1pQpU7RixYrgviTpzTff1OjRo9WvXz+NHTtWO3bs0FVXXaW4uDglJycH3y8QCOiqq67St99+q7vvvlsdOnTQ2rVr9fzzz2vLli369NNPT3m8qns/69ev1xVXXKEuXbroqaeeksfj0bZt2/Tdd99V6ff39ddfa/r06br//vvVqFEjtWzZUgcPHlSfPn2CATEhIUGzZs3SnXfeqZycHI0dO1aS5Pf7dcUVV2jevHnBU/m5ubmaM2eO1q1bp0GDBmnKlCm69957de211+q6666TJHXp0kVSaXDdsWOHRo4cqcaNG2v9+vWaOnWq1q9fr6VLl8pms5WpddiwYUpNTdWkSZO0atUqvfHGG0pMTNSzzz4bXGfEiBGaPn26brvtNvXp00cLFy7U0KFDq3Qs3nnnHQ0fPlyDBw/Ws88+q4KCAk2ZMkXnn3++Vq9eHQxF119/vdavX68HHnhALVu2VGZmpubMmaPdu3eXC04nOt3Pe6L8/HxdcsklOnDggB566CE1btxY77//vubPn19u3Y8//lgFBQW69957FR8fr+XLl+ull17S3r179fHHH1fpWJzszjvv1LRp0zRkyBDdddddKikp0TfffKOlS5eqV69ewfW+/fZbffLJJ7rvvvsUHR2tF198Uddff712796t+Ph4Sapy+wLqDQNYyNtvv20kmRUrVpiXX37ZREdHm4KCAmOMMTfeeKO5+OKLjTHGpKSkmKFDhwa3++abb4wk895775V5vy+//LLc8k6dOpkLL7yw0n0PGjTIBAKB4PKHH37YOBwOc+zYMWOMMZmZmcbtdpvLLrvM+P3+4Hovv/yykWTeeustY4wxxcXFJjEx0XTr1s14vd7gelOnTjWSytTwzjvvGLvdbr755psyNb322mtGkvnuu+8qPWY1sZ/nn3/eSDKHDh2qdL+VkWTsdrtZv359meV33nmnadKkiTl8+HCZ5TfffLOJjY0N/p7feustI8k899xz5d77+O/l0KFDRpKZMGFCuXWOv8+JPvjgAyPJLFq0KLhswoQJRpK54447yqx77bXXmvj4+ODzlStXGklm7NixZdYbMWJEuRqOt6H09HRjjDG5ubmmQYMGZtSoUWW2zcjIMLGxscHlR48eNZLMX//613K1/5yqft6K/O1vfzOSzKeffhpcVlhYaNq3b28kmfnz559yP5MmTTI2m83s2rUruOzCCy+s8O/X8OHDTUpKSvD5119/bSSZBx98sNy6J/79k2TcbrfZtm1bcNkPP/xgJJmXXnopuKyq7QuoLzgFDMsaNmyYCgsL9fnnnys3N1eff/55pad/P/74Y8XGxurSSy/V4cOHg4+ePXsqKiqqwh6Nytx9991lek0uuOAC+f1+7dq1S5I0d+5cFRcXa+zYsbLb//dXdNSoUYqJidEXX3whSfr++++VmZmpe+65R263O7jeiBEjyk1N8/HHH6tDhw5q3759mfovueQSSTpl/TWxnwYNGkiSPvvsMwUCgaoduBNceOGF6tixY/C5MUYzZszQlVdeKWNMmX0PHjxY2dnZWrVqlSRpxowZatSokR544IFy73uq3qzjwsPDg38uKirS4cOH1adPH0kK7uNE99xzT5nnF1xwgbKyspSTkyNJwVON9913X5n1KqrvZHPmzNGxY8d0yy23lPnMDodDvXv3Dh7v8PBwud1uLViwoMwlC1Vxup/3RF9++aWaNWumq666KrgsLCxMo0aNOuV+8vPzdfjwYfXr1y848OR0zZgxQzabTRMmTCj32sm/50GDBiktLS34vEuXLoqJidGOHTsknV77AuoLTgHDshISEjRo0CC9//77KigokN/v1w033FDhulu3blV2drYSExMrfD0zM7PK+23RokWZ5w0bNpSk4Bfz8SDYrl27Muu53W61atUq+Prxn23atCmznsvlUqtWrcrVv3HjxuC1badTf03s56abbtIbb7yhu+66S4899pgGDhyo6667TjfccEOZ0FuZ1NTUMs8PHTqkY8eOaerUqZo6deop9719+3a1a9euzOCf03HkyBFNnDhRH374YbnjVtGk4Kf6fcfExGjXrl2y2+3lPlPr1q1/tpatW7dKUjBgnywmJkaS5PF49Oyzz+qRRx5RUlKS+vTpoyuuuEK33367GjdufMp9nO7nPdGuXbuUlpZWLnBV9Nl2796tJ554Qv/+97/LhdQzmWx9+/btatq0qeLi4n523ZN/R1Lp7+l4HafTvoD6ggAIS/v1r3+tUaNGKSMjQ0OGDAn2TJ0sEAgoMTFR7733XoWvVxZ4KuJwOCpcboyp8nucrkAgoHPOOUfPPfdcha+feB1fbewnPDxcixYt0vz58/XFF1/oyy+/1EcffaRLLrlEX331VaXH6LgTe4uO71eSfvOb32j48OEVbnP8Gr5fatiwYVq8eLF+97vfqVu3boqKilIgENDll19eYW9mTf6+j+/vnXfeqTDInRhyx44dqyuvvFKffvqpZs+erT/+8Y+aNGmSvv76a3Xv3r3SfZzu5z0Tfr9fl156qY4cOaJHH31U7du3V2RkpPbt26cRI0aU2Y/NZqvw2Pn9/jPe/8/9jmqzfQG1hQAIS7v22ms1evRoLV26tMwgjJOlpaVp7ty56t+/f7nwcbKqnEY8lZSUFEnS5s2by/SwFRcXKz09XYMGDSqz3tatW8v0APl8PqWnp6tr165l6v/hhx80cODA066vpvZjt9s1cOBADRw4UM8995yefvppPf7445o/f37wM1ZVQkKCoqOj5ff7f3bbtLQ0LVu2TD6fLziY5mSV1X706FHNmzdPEydO1BNPPBFcfrwn7kykpKQoEAgoPT29TC/rtm3bfnbb46ctExMTq3TM0tLS9Mgjj+iRRx7R1q1b1a1bN/3tb3/Tu+++W+H6v/TzpqSkaMOGDTLGlDmmJ3+2tWvXasuWLfrHP/6h22+/Pbi8ojuPNGzYMHhq9kTHe6pP/KyzZ8/WkSNHqtQLeCqn076A+oJrAGFpUVFRmjJlip588kldeeWVla43bNgw+f1+/d///V+510pKSspMzxIZGVnhdC1VNWjQILndbr344otlejrefPNNZWdnB0eH9urVSwkJCXrttddUXFwcXG/atGnl9j9s2DDt27dPf//738vtr7CwUPn5+ZXWUxP7OXLkSLnXj8+tWNVpaU7kcDh0/fXXa8aMGVq3bl2510+cZuf666/X4cOH9fLLL5db7/jxjoiIkKRyn+94T9HJPVCTJ08+7ZqPGzx4sKTSaX9O9NJLL1Vp25iYGD399NPy+XzlXj/+uQsKClRUVFTmtbS0NEVHR5/yeP/Szzt48GDt27dP//73v4PLioqKyrWPivZjjNELL7xQ7j3T0tK0adOmMr/TH374odwI8uuvv17GmOCE3ic63d7X02lfQH1BDyAsr7JTOie68MILNXr0aE2aNElr1qzRZZddJpfLpa1bt+rjjz/WCy+8ELx+sGfPnpoyZYr+9Kc/qXXr1kpMTKz0Gq2KJCQkaPz48Zo4caIuv/xyXXXVVdq8ebNeffVVnXvuufrNb34jqfQavD/96U8aPXq0LrnkEt10001KT0/X22+/Xe7avNtuu03Tp0/XPffco/nz56t///7y+/3atGmTpk+frtmzZ5eZFuNENbGfp556SosWLdLQoUOVkpKizMxMvfrqq2revHm5u7NU1TPPPKP58+erd+/eGjVqlDp27KgjR45o1apVmjt3bjB03n777frnP/+pcePGafny5brggguUn5+vuXPn6r777tPVV1+t8PBwdezYUR999JHatm2ruLg4de7cWZ07d9aAAQP0l7/8RT6fT82aNdNXX32l9PT0M6pZKm0v119/vSZPnqysrKzgNDBbtmyRdOoe5ZiYGE2ZMkW33XabevTooZtvvlkJCQnavXu3vvjiC/Xv318vv/yytmzZooEDB2rYsGHq2LGjnE6nZs6cqYMHD+rmm28+5fv/ks87evRovfzyy7rlllv00EMPqUmTJnrvvfeCk3Yf/2zt27dXWlqafvvb32rfvn2KiYnRjBkzKhywcscdd+i5557T4MGDdeeddyozM1OvvfaaOnXqFBxYI0kXX3yxbrvtNr344ovaunVr8JT1N998o4svvvi07/9b1fYF1Bu1PewYCKUTp4E5lZOngTlu6tSppmfPniY8PNxER0ebc845x/z+9783+/fvD66TkZFhhg4daqKjo8tMk1LZvufPn19uSgxjSqd9ad++vXG5XCYpKcnce++95ujRo+VqevXVV01qaqrxeDymV69eZtGiRRVOlVFcXGyeffZZ06lTJ+PxeEzDhg1Nz549zcSJE012dvYpj0d172fevHnm6quvNk2bNjVut9s0bdrU3HLLLWbLli0/W4ckM2bMmApfO3jwoBkzZoxJTk42LpfLNG7c2AwcONBMnTq1zHoFBQXm8ccfN6mpqcH1brjhBrN9+/bgOosXLzY9e/Y0bre7zHQse/fuNddee61p0KCBiY2NNTfeeKPZv39/uSlbjk8Dc/JUNydP5WKMMfn5+WbMmDEmLi7OREVFmWuuucZs3rzZSDLPPPPMKbc1prQNDR482MTGxpqwsDCTlpZmRowYYb7//ntjjDGHDx82Y8aMMe3btzeRkZEmNjbW9O7d20yfPv1nj3dVP29lduzYYYYOHWrCw8NNQkKCeeSRR8yMGTOMJLN06dLgehs2bDCDBg0yUVFRplGjRmbUqFHB6VjefvvtMu/57rvvmlatWhm32226detmZs+eXW4aGGOMKSkpMX/9619N+/btjdvtNgkJCWbIkCFm5cqVwXUqa08pKSlm+PDhZZZVtX0B9YHNmBq88hwAcEbWrFmj7t27691339Wtt94a6nKq1eTJk/Xwww9r7969atasWajLASyJawABIMROvt2ZVBqS7Ha7BgwYEIKKqs/Jn62oqEivv/662rRpQ/gDQohrAAEgxP7yl79o5cqVuvjii+V0OjVr1izNmjVLd999d7VN0RMq1113nVq0aKFu3bopOztb7777rjZt2lTplEoAagengAEgxObMmaOJEydqw4YNysvLU4sWLXTbbbfp8ccfP+MJq+uKyZMn64033tDOnTvl9/vVsWNH/f73v9dNN90U6tIASyMAAgAAWAzXAAIAAFgMARAAAMBiCIAAAAAWU7+vLg6xQCCg/fv3Kzo6+hff/xUAANQOY4xyc3PVtGlT2e3W7AsjAP4C+/fvr/dTNAAAYFV79uxR8+bNQ11GSBAAf4Ho6GhJpQ0oJiYmxNUAAICqyMnJUXJycvB73IoIgL/A8dO+MTExBEAAAOoZK1++Zc0T3wAAABZGAAQAALAYAiAAAIDFEAABAAAshgAIAABgMQRAAAAAiyEAAgAAWAwBEAAAwGIIgAAAABZDAAQAALAYAiAAAIDFEAABAAAshgAIAABgMc5QFwAA1cEYozxviY7kFyunsEQ5RT7lFPqUW/S/P+cUlajI55e3JCBviV9eX+B/fy4JyOc3Zd8zEJAx/1vmdNjkcdrldtrlcfz086dHmMuuKI9T0WFOxXicigpzKPr48zCnGka4FOl2yGaz1fahkcvlUlhYWK3vF0DdRQAEUOcV+fzae7RQ+44Vau/RAh3M8epwnleHcsv+LPIFQl3qKbnsRtEuKdpV+jPm+E+3FOcxivMYNfRI7mo+NxMREaEBAwYQAgEEEQABhJwxRln5xdpxKF/bD+Vp5+F87T1aGvb2HSvU4bziKr9XhNuh2HCXYsJcpb1v4S7F/PQzOsypCLcz2GvncTrkcdnldtjlcdnltNt1vIOuoKBQa1avlt3hkNPpkCT5A5IvIJWY0p++gOTzl/4sDhgVlkgFJfrpZ+nz48u8fskXsOmIVzriPXUvYLRLig+T4sNsig+TEiNsahxhU1JE6Wun04vo8/lUUFAgn89HAAQQRAAEUGuMMdp3rFAb9udoa2aedhzK147DedqemaecopJTbhvpdqh5wwg1axiupJgwJUZ71Cjao4QojxKi3UqIClOjaLci3NXzz1pubq4K043Cw13yeDy/+P28JUbZxUbZXqOcn34efxz1GmUVBnS40KjIL+X6Sh87c4+ffv7faegIp9Qk0q7GkXY1ibSpaZRdLWLsig+zVRoMS0pOfWwBWA8BEECNKPL5teVgrjYeyNHGA7nacCBHmw7kVBr0bDapWYNwtUqIUqtGkUqOi1CzBuFq3rD0ERvuCsn1c9XF47Qp0WlTYkTl6xhjlO+TDhcGlFVkdLjQ6FBBQBkFRhn5AWUVGhWUSNuzA9qeXfZ0d4RTSo62lz5i7EqJtqtpFOP8AFSMAAjgFwsEjHYcztPq3ce0Zs8xrd51VJsP5uqkMRWSJKfdprRGEWqdGKnU+HC1jI9Qy7hwpcSFK8zlqHgHfq/y8rw1+yFOkpeXJ7/fX6v7tNlsinJLUW6HWsaWf73Yb3SwwOhAfkAZ+QEdyAtob57R/ryACkqkzUcD2nz0f8HQbpOaRUrNw206HL1L57ZKUMv4cNnrYZBmIAtQvWzmxCFuOC05OTmKjY1Vdna2YmJiQl0OUGtyinxaufOoVu46qjV7jumHvceUW0HPXqTTqFmEUdNIo6YRpX9OCpec9aBjyufzKTMzU6mpqYqIOEW3XR1QEigNgXtyA9qdG9DunNI/5/nKrxvmMGoRZZQSZZQaZdQq2iisHnQFMJAF1Ynvb3oAAVTBsYJiLU8/omXpR7QsPUsb9ucocNJ/HcNcdnVp1kAdG0dIWTvVKtahxChnvT1ta4yR3++v9V7AM+G029QixqEWMQ71/2mZMUZHiozWZ+Trh705OmqP0Z58u4r8Nm3JtmlLdul6NknJ0VLbBja1ibWpTQObIl1163fGQBag+hEAAZST7y3R0h1Z+mbrYS3dkaXNB3N18rmClPgIndsyTt1bNFC35AZqlxQtp8Ou3NxczZuXXm2DJ0KluLjqI4/rIpvNpvhwm7o3khrkZik1NUYRkRHamxfQjmOl1xBuOepXZoHR7lxpd67R3D1GNknNo+1qH2dXp3iH2sc5FOYMfSBkIAtQvQiAABQIGG04kKNFWw9p0ZZDWrnraLlJkdMSItW7Vbx6p8apd2q8GsfSE1PfOOw2pcQ4lBLj0MU/LTtSFNDmIwFtPuLX5qN+Hcg32pNbegp5zq4SOWxSm4Z2dW7k0DmNHEqOttfLawgBlEUABCwqu9CnBZszNX9Tpr7ddrjcXHvJceG6oE2C+qc10nmpcUqIrr+9eahcXJhdfZva1bdp6ddBttdo81G/NmT5tf6wX4cKjTYdCWjTkYD+tcWnGLfUKd6hLglOdUlw1LnTxQCqxtIBcN++fXr00Uc1a9YsFRQUqHXr1nr77bfVq1evUJcG1Ig9Rwo0d+NBzdlwUMvTj6jkhAv5It0O9U2L14C2CbqgTYJaxkfU2+v3cOZiPTad19ip8xo7ZUzpqON1h/1ad9ivTUf8yimWlhzwa8kBvxw2qV2cXd0TnOqW6FBCRD0Y3QNAkoUD4NGjR9W/f39dfPHFmjVrlhISErR161Y1bNgw1KUB1cYYo/X7c/TV+gx9teGgNmXklnm9bVKUBnZI0oVtE9SjRUO568PwXNQam82mxpE2NY60a1CKSyUBo23HAlp7yK/Vh0q0P89oQ1ZAG7KK9d6m0nkIuyc61CPRoZQYO/+BAOowywbAZ599VsnJyXr77beDy1JTU0NYEVA9jCm9nu/zHw/oix8PaPeRguBrdpt0bss4XdoxSZd2TFJKfGQIK0V947Tb1D6udGDIje3cOpgf0OpMv1ZnlmjL0UDw2sF/b/cpMaK0J/Hcxg61iCYMAnWNZQPgv//9bw0ePFg33nijFi5cqGbNmum+++7TqFGjKt3G6/XK6/3fZLQ5OTm1USrws4wx2nwwV1/8eECf/3hA6Yfzg6+Fuxy6qF2CLu2YpIvbJaphpDuEleJskhRp1+Wpdl2e6lJesdEPh0q0OtOvHw+Xji7+fIdPn+/wqXGETec2KT2t3Dyq8lvWAag9lg2AO3bs0JQpUzRu3Dj94Q9/0IoVK/Tggw/K7XZr+PDhFW4zadIkTZw4sZYrBSq350iBPl29T5/9sF/bMvOCyz1Ouy5pn6ihXZrokvaJ1XZ/XKAyUW6b+jdzqX8zl7wlRj8c8mtZRol+PORXRoHRf7b79J/tPjWNtKlPU6f6NXWqUTiXHAChYtk7gbjdbvXq1UuLFy8OLnvwwQe1YsUKLVmypMJtKuoBTE5OtvRM4qh9uUU+zVqXoU9W7dXSHUeCy90Ouy5sl6ArujTRwA5JivKEJvSVzgM4T+Hh4fV6HsDc3Fylp6crNTVV0dHRoS7njIX6cxSWGK3J9Gt5RonWHvKr5IRvnPZxdvVv6lSvxk6Fn2KuQa/Xq8LCQg0cOLBe/y5Qd3AnEAv3ADZp0kQdO3Yss6xDhw6aMWNGpdt4PJ56/YWG+ssfMPp222F9smqvZq/PUJGv9H6vNpvULy1e13Zvrss6JSkmzBXiSoGywp029W3qVN+mThX4jFZllui7fSXBqWU2HSnWOxuK1SPJofObOdUx3sE8g0AtsGwA7N+/vzZv3lxm2ZYtW5SSkhKiioDy9h4t0PQVezT9+73KyCkKLm+VEKnrezTXNd2bqVmD8BBWCFRdhMum85u5dH4zl7IKA1qyv0Tf7i9RRr7R0gN+LT3gV0OPTRc0d2pAc04RAzXJsgHw4YcfVr9+/fT0009r2LBhWr58uaZOnaqpU6eGujRYnM8f0NebMvXB8t1auOVQ8BZsDSJcuqprU13fo7m6NI/lQnrUa/Hhdl2R5tbQVi6lZwf03f4SLT1QoqNeo3//dL3gOY0cuijZqfYxlrxSCahRlg2A5557rmbOnKnx48frqaeeUmpqqiZPnqxbb7011KXBovYcKdBHK/booxW7deiEu3L0btlAN3Rvokvaxgfn6cvLy6vsbUIuLy9Pfr8/1GWgnrDZbGrVwKFWDRy6ub1bqw/6NX+PTxuPBPTj4dIRxbFu6dx4m1rsz1KbpqGu+JdxuVwKC+M2igg9yw4CqQ5cRIpfypjSa/umfbdTX2/ODPb2RTmNzksIqG9SQAn17LvC5/MpMzNTqampioiICHU5ZyzUgyeqS339HBn5AS3aW6Jv9vmU+9P/h2wy6tjAaEDjgNrGGtXHTvCIiAgNGDCAEBhifH9buAcQCKV8b4k+Wb1P/1i8s8z0LX1SG6i987C6JTgUXk8HHBlj5Pf76QXEL9I40q5h7dy6ro1Li3flaW56kXYXR2j9MZvWH7OrSYR0cXO7+jS2yeOoH0nQ5/OpoKBAPp+PAIiQIwACtWh3VoH+uWSnPvp+j3KLSiSV3oP3xl7Jur1vihLCTOkUKh5XvR1xXlxc/PMrAVXktNvUvZHUIPeAIpJStTTLrW/3lehAgfT+loBm7pAGNHdqYAuXEuvBvYhLSkpCXQIgiQAI1IqVu47otYU7NHfjweBp3pbxERrer6Vu6Nlc0T9N35Kbm3uKdwGsLSlC+k2SR9e3devbvSWau9ungwVGs3eW6KudJeqW6NCvUl1q09AR6lKBOo8ACNSQQMBo3qZMvb5wu77fdTS4fEDbBI3s11IXtk2Q3V4/Tl0BdUm406ZLW7o0MMWptYf9mrOzROuy/D/dl9ivNg3s+lUrl7omMKcgUBkCIFDNvCV+fbZmv6Yu2hG8vs/tsOva7s00akCqWifWnwvxgbrMbrOpa4JTXROc2p8X0Jc7fVq8r0RbjwX0wiqvmkTaNCTVpb5NnXLxny2gDAIgUE1yi3x6f9luvfVdug7mlN4yMNrj1K19UjSyf0slxXDRN1BTmkbZdUdnj65r7dKcXSX6eo9PB/KN3lpXrE+2+nRpilOXtHCd8pZzgJUQAIFfKLvAp7e+S9db36UHB3YkxXh05/mpuuW8FsHr+wDUvAZhdt3Yzq0r0lxasKdEX+306ajX6OMtPv033afLUlwalOJSpIsgCGsjAAJn6FhBsd78Nl3TvtupXG9p8GudGKXRA1rp6m7NgpM2A6h94c7S07+Xpji19ECJvthR2iM4c5tPX+4sDYKXprgU5SYIwpoIgMBpOpJfrDe/3aF/LN6lvJ+CX7ukaD04sI2GdG7MwA6gDnHaS+8/3K+pU99n+PXv7cXam2f02XafZu/0aVCKS4NbuhRNEITFEACBKsrK8+rv36Trn0t2qqC4dJLjDk1i9NDA1rqsI8EPqMvsNpvOa+JUr8YOrTro12fbfdqTG9DnO3yas8unS1q4NCTVpRiCICyCAAj8jJwin95YtENvfpuu/J+CX6emMXpoYBsN6pBE8APqEbvNpl6NneqZ5NCaQ359ts2nnTkBzUr3af5unwa3dOnyVAaL4OxHAAQqUeTz659LdurVBdt1rMAnSTqnWaweGthGAzskysb8YkC9ZbPZ1D3RqW4JDv1wyK+Z23zalRPQZ9t9mrfbp6Gt3BrYwil3PbnNHHC6CIDASXz+gKZ/v0cvztsanM4lLSFSv72snS7v3JjgB5xFbDabuiU61SXBoZUH/ZqxtVgZ+UYfbS7W7J0+XZ3m0gXNnXLS04+zDAEQ+EkgYPSfH/fr+TlbtDOrQJLUrEG4xg5qo2u7N5PTwahe4Gxlt9l0bmOneiQ6tHh/iT7d5lNWkdE/NhRr1k6frm3tVu8m3FkEZw8CICBp8bbD+tMXG7XhQI4kKT7Srfsvaa1f924hj5P7igJW4bDbdEFzl/o0dWrBnhL9Z3uxMguMXv/Rqy932nVzO7c6xPNvAuo/AiAsbVtmnib9d6PmbcqUVHrnjrsHtNId56cq0sNfD8CqXHabLk1x6YJmTs3ZVTqJ9K6cgJ5dUaTuiQ4Na+tWkyjOCqD+4hsOlpSV59UL87bqvWW75Q8YOew2/aZ3Cz00qK3iIt2hLg9AHRHmtOnKNLcuTHbp023FWrCnRKsz/frhUKEuTnbq6tZupo5BvUQAhKUU+fyatninXvl6W/DuHYM6JGn8r9orLSEqxNUBqKti3Dbd3tGjQS1cmr65WGsO+TVvd4kW7y/Rla1Kby/HiGHUJwRAWIIxRv9dm6FJszZq79FCSaVz+T0+tIP6pTUKcXUA6oumUXaN7RmmDVl+fbS5WLtyApq+xad5u0t0S3u3eiY5mCkA9QIBEGe9LQdzNeGz9VqyI0uSlBTj0e8Gt9d13ZsxiTOAM9Ix3qEJfcO0eH+JZmwpHTH88hqvOsXbdWsHj5pyfSDqOAIgzlo5RT69MHerpi3eKX/AyOO0654L0zT6wlaKcNP0AfwydlvpfYbPbezUFztKB4qszwroj98ValCKU9e0dnNHEdRZfAvirBMIGH2yep+embVJh/NKJ3K+rGOS/nhFRyXHRYS4OgBnG4/DpuvauHV+M6c+2FSs1Zl+zd5ZoiX7/RrWzqV+TZ3MH4g6hwCIs8q6fdl64rN1WrX7mCSpVaNITbiqky5smxDawgCc9RIj7HqoR5h+PFSi9zcWK6PA6I21pSOHf9PBrSZhoa4Q+B8CIM4K2YU+/XX2Jr23bLeMkSLcDj04sI3u6J8qt5NrcQDUni4JTnWMd+irnT79e7tP244FNHFJkS5sZtPgJqGuDihFAES9ZozRF2sPaOJ/NuhQbunp3l91StC4S1opKcYjb2G+vCGu8XTk5eXJ7/eHugwAv5DTbtOvWrnVt6lTH20u1tIDfi3YZ7Qq06lA4h5d2a15vR0t7HK5FBZGd2Z9RwBEvbXnSIH++Nk6Ldh8SJKUFCHdkFKiNtH7tW7Ffq0LcX1nwufzKTMzU6mpqaEuBUA1aBhm1z1dw3RBM7/+sb5ImYU2Pf7fdL23eLuub+lXfD3MURERERowYAAhsJ4jAKLe8fkDevPbdE2eu0VFvoDcDrvu6pesVt5tCnM75XK5Ql3iGTPGyO/30wsInGU6NXLosW4BTV97TCvyG2rDMbu2/mjXlS3tGpRsk6OeTEnl8/lUUFAgn89HAKznCICoV1buOqrHZ67VpoxcSVKfVnH687XnKDHMaN68bXK5XPJ4PCGu8swVFxeHugQANcRll/rFHNXANg30r50ObT4a0Cc7AlqeadOITh61bugIdYlVUlJSEuoSUA0IgKgX8r0levbLTXpn6S4ZIzWMcOnxoR11fY9mstlsys3NDXWJAFAljSOkx84L03f7S/ThpmLtzTP687IiDUpx6oY2bnmYOxC1gACIOu/brYf16Iwfte9Y6S3cbujZXH/4VQfFRbpDXBkAnBnbT5NId00oHSTy7b4SzdlVojWZfo3s7FHH+PrRG4j6iwCIOiunyKenv9ioD1fskSQ1axCuZ6/vovPbcO9eAGeHaLdNd53jUZ8mDr29rliHCo3+sqJIFzV3alg7tyJc9AaiZhAAUSd9vemg/vDJOmXkFEmSbu+bokcvb69ID00WwNmncyOn/nS+Qx9vKdbXu0u0YG+Jfjzs1/BObnVN4N89VD9aFeqUYwXFeuo/G/TJ6n2SpJT4CP3l+i7q3So+xJUBQM0Kd9p0e0ePzmvs1NvrvDpYYPT8Sq/6N/XrlvZuRbnpDUT1IQCizpiz4aDGf7JWh/O8stmkO/un6pHL2inczbUwAKyjfZxDT/UP18ytxZq9s0Tf7S/R2sN+3dHZrW6JfG2jetCSEHK5RT793+cbNP37vZKktIRI/eWGruqZ0jDElQFAaHgcNt3c3qNejZ16a61X+/ONJq/yakDz0t7AcEYK4xciACKklu3I0iMf/6C9Rwtls0mjLmilcZe2VZiLXj8AaN3AoSf7heuTn3oDF+0t0cYsv+46x6N2cfw7iTNHAERIFPn8em7OFv39mx0ypnSE79+GdVUfrvUDgDLcP/UGdkt06u8/enWo0OiZ5UW6PNWla1u75HbQG4jTRwBErVu/P1vjPvpBmw+WTt48rFdz/fGKjooOq7+3cAOAmtY+zqE/nR+u9zcW65t9JZqV7tPaQyUa1cWjlBh6A3F6CICoNf6A0euLtuv5OVvk8xvFR7o16bpzdFmnxqEuDQDqhXCnTXee41GPJIfeXufV3jyjp5YU6ZrWLg1t5ZLdRm8gqoYAiFqx71ihHv5wjZbvPCJJuqxjkp6+7hw1iqq/9+0FgFDpnuhU2vkO/WO9VysP+jVjq0/rDvt1dxeP4sPtoS4P9QCtBDVu1toDGjJ5kZbvPKJIt0N/uaGLXr+tJ+EPAH6BGLdN93fz6M7Obnkc0uajAT2xuFArD5aEujTUA/QAosYUFvv11Ofr9cHy0lu5dW0eqxdu7q6WjSJDXBkAnB1sNpsuaO5Sm4YOvf6DV+k5Ab202quLkkuni/EwQASVIACiRmzYn6MHP1ytbZl5stmk0QPSNO7StnI76XQGgOrWONKux/uE6ZOtPv033acFe0q05Yhf93T1qAUDRFABAiCqlTFG0xbv1KT/blKxP6DEaI+ev6mb+rduFOrSAOCs5rTbNKydW53iHfr7T5NHP7WkSDe1c2tQilM2BojgBARAVJsj+cX67cc/6OtNmZKkge0T9Zcbuiiea/0AoNZ0alR6K7m31nq15pBf720q1rosv0ad4+F+wgiy7Pm4J598Ujabrcyjffv2oS6r3vp+5xH96oVv9PWmTLmddk28qpPeGN6L8AcAIRDjtumhHh79poNbTrv0wyG/nlhcqK1H/aEuDXWEpXsAO3XqpLlz5wafO52WPhxnxBijv3+zQ89+uVn+gFGrhEi98use6tAkJtSlAYCl2Ww2DUpxqV2cQ6+sLlJGQekdRG5o69blLTklbHWWTjxOp1ONGzMJ8Zk6VlB6ynfuxtJTvld1baqnrztHUR5LNysAqFOSo+2a0C9c09Z5tSzDr482F2vzkdL7CXNK2LosewpYkrZu3aqmTZuqVatWuvXWW7V79+5Ql1RvrNlzTENf/FZzN2bK7bDrz9d21gs3dyP8AUAdFO606Z6uHt3esfSU8JpDfk1YXKjtxzglbFWW/bbu3bu3pk2bpnbt2unAgQOaOHGiLrjgAq1bt07R0dEVbuP1euX1eoPPc3JyaqvcOuP4KN+n/7tRPr9Ri7gIvXprD3VuFhvq0gAAp2Cz2XRJC5fSGtj1yhqvMguMnl5WpGHt3LqMUcKWY9kewCFDhujGG29Uly5dNHjwYP33v//VsWPHNH369Eq3mTRpkmJjY4OP5OTkWqw49HKKfLrvvVWa+J8N8vmNhnRurM8fPJ/wBwD1SEqMQ0/2DVevJIf8RvpgU7FeXuNVYYkJdWmoRZYNgCdr0KCB2rZtq23btlW6zvjx45WdnR187NmzpxYrDK3NGbm66qVvNWtdhlwOmyZc2VGv3tpDMWGuUJcGADhNES6bxnT7aZSwTVp50K+JSwq1Py8Q6tJQSwiAP8nLy9P27dvVpEmTStfxeDyKiYkp87CCz3/cr2tf/U47swrUrEG4po/uq5H9UzldAAD12PFRwn/oHaa4MJsy8o2eWlKoFRncS9gKLBsAf/vb32rhwoXauXOnFi9erGuvvVYOh0O33HJLqEurM0r8AT393426//3VKij2q3/reP3ngfPVvUXDUJcGAKgmrRqUnhLuEGdXkV96ZY1X0zcXyx/glPDZzLKDQPbu3atbbrlFWVlZSkhI0Pnnn6+lS5cqISEh1KXVCUfyi/XAB6v03bYsSdLoC1vpd5e1k9Nh2f8zAMBZK8Zj0297henjLT59ubP0fsI7c/y6t2uYopkq5qxk2QD44YcfhrqEOmvt3mzd8+5K7TtWqAi3Q3+9oauGdqn81DgAoP5z2G26ub1brWLtenOdVxuyAnpycaHu7+5Raqwj1OWhmtGdgzL+tXKvrn9tsfYdK1Rqo0h9OqY/4Q8ALOS8Jk490SdcSRE2ZRUZ/XlZkRbt9YW6LFQzAiAkScUlAT3x2Tr99uMfVFwS0MD2ifp0TH+1Tap4TkQAwNmrWbRdE/qGq3uiQyUB6a11xXpng5frAs8ilj0FjP85kl+se99dqWXpR2SzSWMHttUDl7SW3c51HwBgVREumx7o7tF/tvs0c5tP83aXaG+OTbenhboyVAcCoMVtzsjVXf9coT1HChXlceiZq9vrwjbxys/PC3VppyUvL09+P7c0AoDqZLfZdHVrt5Kj7Zr6o1ebjxk9t86h1A6HdE5KqKs7c7m5uaEuIeQIgBY2Z8NBjf1wtfKL/UoIl+5sU6SS3Ws0rx7eEtnn8ykzM1OpqamhLgUAzjo9kpx6vI9dk78vVJbXrpHvb9Dtbfzq1LB+nhIuKCgIdQkhRwC0IGOMpizcrr/O3ixjpPNSYnV1o8OKDXfK5aqfd/Ywxsjv99MLCAA1JDnart92DeiVNV7tLQ7XG5uduqaVXYNb2OrdjQGKi4tDXULIEQAtpsjn12MzftSna/ZLkn7Tp4XGXdRCixbMl8vlksfjCXGFZ4a/zABQ86Jc0vXx+7XStNK3GTbN3BFQRqFDIzu75XbUnxDodBJ/OAIWkplTpLvfWak1e47JYbfpySs76ra+LbkWAgBQZQ6bdFMro1ZxHr27sVhLDviVUVCkB7t71DCMyUXqC35TFrF2b7auevk7rdlzTLHhLr1zx3m6rW/LUJcFAKinLmnh0u96hSnSJaVnB/TUkiLtyuEynPqCAGgBX63P0I2vL1ZGTpFaJ0bpszH91a91o1CXBQCo5zrEOzShb7iaRtl01Gv09LIircksCXVZqAIC4FnMGKM3v03X6HdXqsgX0IC2Cfrkvn5q2Sgy1KUBAM4SiRF2Pd47XB3j7fL6pRdWeTVnF3cOqesIgGepEn9AT/57vf7v8w0yRvp17xZ6c3gvxYTVz1G+AIC6K9Jl07ieYRrQ3Ckj6b2NxXpvo1cBUz+nibECBoGchfK9JXrgg9X6elOmJOkPv2qvURe0qnfD9AEA9YfTbtPITm41jrBp+haf5uwqUWaB0b1dPQpz8v1T19ADeJbJyC7SsNeX6OtNmfI47Zpyaw/dPSCN8AcAqHE2m02/auXWmG4euezSD4f8mrS8SEeLAqEuDSchAJ5FNuzP0TWvfKf1+3MUH+nWB3f30ZBzmoS6LACAxZzb2KnHzgtTjFvalcMI4bqIAHiWmL85Uze+VjrSNy0hUp+O6a8eLRqGuiwAgEWlNXDoj33KjhD+8RAjhOsKAuBZ4MPlu3XXP75XfrFffVvF65N7+ys5LiLUZQEALC6hghHC3+5jhHBdQACsx4wxenHeVj32yVr5A0bX92iuf9xxnmIjGOkLAKgbjo8Q7tvUIb+R3lhbrP9sL5ZhhHBIMQq4nvIHjP742Tq9v2y3JOn+i1vrkcvaMtgDAFDnOO023X2OR3Een75I92nGVp+Oeo1+08EtO99bIUEArIeKfH498MFqzdlwUDab9NRVnbitGwCgTrPZbLqxnVsNw2x6b2Oxvt5domNFRvd09cjtIATWNk4B1zPHCop16xvLNGfDQbl/muaF8AcAqC8Gpbh0XzePnHZpVaZff1lRpLxiTgfXNgJgPbLvWKFueG2JVu46qpgwp969s7cu78w0LwCA+uXcxk79rleYIpzStmMB/XlZoQ4XMldgbSIA1hObMnJ03avfaVtmnprEhulf9/bTealxoS4LAIAz0i7Oocd7hysuzKYD+UZ/Wlqk3cwVWGsIgPXAsh1ZuvG1JTqY41XbpCjNuLef2iZFh7osAAB+kWbRdv1/fcLUPMqmY16jScuLtOUoIbA2EADruLkbDur2t5Yrt6hE57WM08ej+6lpg/BQlwUAQLWIC7NrfO9wtW1oV2GJ9P+vKNIPTBhd4wiAddjM1Xs1+t2V8pYEdGnHJP3zTub4AwCcfSJdNj3SK0xdExwqDkgvrvJqyX5CYE0iANZR/1i8Uw9/9IP8AaPrejTTlFt7KMzlCHVZAADUCI/Dpge6e9S3SemE0VN/9GruLu4aUlOYB7COMcbopa+36bk5WyRJI/q11BNXdJTdzhxJAICzm9Nu06guHkW6ijV3d4ne3VisfJ/RVWkubnRQzQiAdUggYPSnLzbqre/SJUkPD2qrBwe2ptEDACzDbrPp1g5uRbps+my7TzO3+ZTnM7qlPXcNqU4EwDqixB/QozPWasaqvZKkCVd21Mj+qSGuCgCA2mez2XRtG7eiXDa9t6lYc3aVKN8n3dHZLSdnxKoFAbAOOPHWbg67TX+9oYuu69E81GUBABBSl7Z0KdJt0xtrvVq8v0QFPqP7unHruOrAIJAQy/eW6I5pK4K3dnvtNz0JfwAA/KRfU6ce6O6Ryy6tOeTXC6uK5C3h1nG/FAEwhHKKfLr9reVavD1LkW6Hpo08V5d2TAp1WQAA1CndE50a1zNMHoe0Piugv60sUiEh8BchAIbIsYJi/eaNZcH7+r43qo/6pTUKdVkAANRJHeId+l2vMIU7pS1HA/rriiLl+wiBZ4oAGAJZeV7d8vdl+nFvthpGuPTB3X3ULblBqMsCAKBOa93QoUfPDVOkS9qRHdCzy4uUU0wIPBMEwFqWmVOkm6cu1cYDOWoU5dFHo/uqU9PYUJcFAEC90DLWofHnhSvGbdPu3ICeWV6oY0WBUJdV7xAAa9H+Y4W6aepSbc3MU+OYME0f3Udtk6JDXRYAAPVK82i7xp8XpoYem/bnGU1aXqSsQkLg6SAA1pI9Rwo07PUlSj+cr2YNwjV9dF+1SogKdVkAANRLTaLsGt87TI3CbTpYYPT0siJlFhACq4oAWAvSD+dr2OtLtPdooVrGR2j6PX3VIj4i1GUBAFCvJUaU9gQmRdiUVVQaAg/kEQKrggBYw7YezNWw15foQHaR0hIi9dHovmrWIDzUZQEAcFaIDy/tCWwWZdMxr9EzK4q0nxD4swiANWhzRq5unrpUh3K9at84Wh+N7qukmLBQlwUAwFmlgceux84LV3K0Xdleo2cJgT+LAFhDNmfk6td/X6qs/GJ1bhajD0b1UaMoT6jLAgDgrBTttun354YFQ+AzywmBp0IArAFbDpYNf+/d2UcNI92hLgsAgLPaiSEwp7g0BO4jBFaIAFjNtp4Q/jo1jdG7d/ZWbIQr1GUBAGAJ0W6bHj0hBD67vJAQWAECYDXaejBXt/x9qQ7nlYa/9+7qrQYR9PwBAFCbon4KgS2i7copFiGwAgTAnzzzzDOy2WwaO3bsGW1fGv6WEf4AAKgDon46HVwmBOYSAo8jAEpasWKFXn/9dXXp0uWMtt9+6Hj486pjE8IfAAB1wfEQmBJTGgKfWUEIPM7yATAvL0+33nqr/v73v6thw4Zn9B53vP094Q8AgDooym3T73qVhsDcn0LggXwT6rJCzvIBcMyYMRo6dKgGDRp0xu+RlV+sDj+FP0b7AgBQt5wcAl9ZSy+gM9QFhNKHH36oVatWacWKFVVa3+v1yuv1Bp/n5ORIklonROj1mzvJGfAqN9db2eZ1Vl5envx+f6jLAACgxhwPgX9ZUaSdh0NdTehZNgDu2bNHDz30kObMmaOwsKrdnWPSpEmaOHFiueW3NMvWqiWLqrvEWuPz+ZSZmanU1NRQlwIAQI2Jctv0u3PD9KeFedoT6mJCzLIBcOXKlcrMzFSPHj2Cy/x+vxYtWqSXX35ZXq9XDoejzDbjx4/XuHHjgs9zcnKUnJys2HCnwsPr7/19jTHy+/30AgIAznrRbpvu62LX8lAXEmKWDYADBw7U2rVryywbOXKk2rdvr0cffbRc+JMkj8cjj6f87dycTmeFy+uL4uLiUJcAAECtiXbZQl1CyFk2AEZHR6tz585llkVGRio+Pr7ccgAAgLOJ5UcBAwAAWI1lewArsmDBglCXAAAAUOPoAQQAALAYAiAAAIDFEAABAAAshgAIAABgMQRAAAAAiyEAAgAAWAwBEAAAwGIIgAAAABZDAAQAALAYAiAAAIDFEAABAAAshgAIAABgMQRAAAAAiyEAAgAAWAwBEAAAwGIIgAAAABZDAAQAALAYAiAAAIDFEAABAAAshgAIAABgMQRAAAAAiyEAAgAAWAwBEAAAwGIIgAAAABZDAAQAALAYAiAAAIDFEAABAAAshgAIAABgMQRAAAAAiyEAAgAAWAwBEAAAwGIIgAAAABZDAAQAALAYAiAAAIDFEAABAAAshgAIAABgMQRAAAAAiyEAAgAAWAwBEAAAwGIIgAAAABZDAAQAALAYAiAAAIDFEAABAAAshgAIAABgMQRAAAAAiyEAAgAAWIxlA+CUKVPUpUsXxcTEKCYmRn379tWsWbNCXRYAAECNs2wAbN68uZ555hmtXLlS33//vS655BJdffXVWr9+fahLAwAAqFHOUBcQKldeeWWZ53/+8581ZcoULV26VJ06dQpRVQAAADXPsgHwRH6/Xx9//LHy8/PVt2/fStfzer3yer3B5zk5ObVRHgAAQLWy7ClgSVq7dq2ioqLk8Xh0zz33aObMmerYsWOl60+aNEmxsbHBR3Jyci1WCwAAUD0sHQDbtWunNWvWaNmyZbr33ns1fPhwbdiwodL1x48fr+zs7OBjz549tVgtAABA9bD0KWC3263WrVtLknr27KkVK1bohRde0Ouvv17h+h6PRx6PpzZLBAAAqHaW7gE8WSAQKHONHwAAwNnIsj2A48eP15AhQ9SiRQvl5ubq/fff14IFCzR79uxQlwYAAFCjLBsAMzMzdfvtt+vAgQOKjY1Vly5dNHv2bF166aWhLg0AAKBGWTYAvvnmm6EuAQAAICS4BhAAAMBiCIAAAAAWQwAEAACwGAIgAACAxRAAAQAALIYACAAAYDEEQAAAAIshAAIAAFgMARAAAMBiCIAAAAAWQwAEAACwGAIgAACAxRAAAQAALIYACAAAYDEEQAAAAIshAAIAAFgMARAAAMBiCIAAAAAWQwAEAACwGAIgAACAxRAAAQAALIYACAAAYDEEQAAAAIshAAIAAFgMARAAAMBiCIAAAAAWQwAEAACwGAIgAACAxRAAAQAALIYACAAAYDEEQAAAAIshAAIAAFgMARAAAMBiCIAAAAAWQwAEAACwGAIgAACAxRAAAQAALIYACAAAYDEEQAAAAIshAAIAAFgMARAAAMBiCIAAAAAWQwAEAACwGAIgAACAxRAAAQAALMayAXDSpEk699xzFR0drcTERF1zzTXavHlzqMsCAACocZYNgAsXLtSYMWO0dOlSzZkzRz6fT5dddpny8/NDXRoAAECNcoa6gFD58ssvyzyfNm2aEhMTtXLlSg0YMCBEVQEAANQ8y/YAniw7O1uSFBcXF+JKAAAAapZlewBPFAgENHbsWPXv31+dO3eudD2v1yuv1xt8npOTUxvlAQAAVCt6ACWNGTNG69at04cffnjK9SZNmqTY2NjgIzk5uZYqBAAAqD6WD4D333+/Pv/8c82fP1/Nmzc/5brjx49XdnZ28LFnz55aqhIAAKD6WPYUsDFGDzzwgGbOnKkFCxYoNTX1Z7fxeDzyeDy1UB0AAEDNsWwAHDNmjN5//3199tlnio6OVkZGhiQpNjZW4eHhIa4OAACg5lj2FPCUKVOUnZ2tiy66SE2aNAk+Pvroo1CXBgAAUKMs2wNojAl1CQAAACFh2R5AAAAAqyIAAgAAWAwBEAAAwGIIgAAAABZDAAQAALAYAiAAAIDFEAABAAAshgAIAABgMQRAAAAAiyEAAgAAWAwBEAAAwGIIgAAAABZDAAQAALAYAiAAAIDFEAABAAAshgAIAABgMQRAAAAAiyEAAgAAWAwBEAAAwGIIgAAAABZDAAQAALAYAiAAAIDFEAABAAAshgAIAABgMQRAAAAAiyEAAgAAWAwBEAAAwGIIgAAAABZDAAQAALAYAiAAAIDFEAABAAAshgAIAABgMQRAAAAAiyEAAgAAWAwBEAAAwGIIgAAAABZDAAQAALAYAiAAAIDFEAABAAAshgAIAABgMQRAAAAAiyEAAgAAWAwBEAAAwGIIgAAAABZDAAQAALAYSwfARYsW6corr1TTpk1ls9n06aefhrokAACAGmfpAJifn6+uXbvqlVdeCXUpAAAAtcYZ6gJCaciQIRoyZEioywAAAKhVlu4BBAAAsCJL9wCeLq/XK6/XG3yek5MTwmoAAADODD2Ap2HSpEmKjY0NPpKTk0NdEgAAwGkjAJ6G8ePHKzs7O/jYs2dPqEsCAAA4bZwCPg0ej0cejyfUZQAAAPwilg6AeXl52rZtW/B5enq61qxZo7i4OLVo0SKElQEAANQcSwfA77//XhdffHHw+bhx4yRJw4cP17Rp00JUFQAAQM2ydAC86KKLZIwJdRkAAAC1ikEgAAAAFkMABAAAsBgCIAAAgMUQAAEAACyGAAgAAGAxBEAAAACLIQACAABYDAEQAADAYgiAAAAAFkMABAAAsBgCIAAAgMUQAAEAACyGAAgAAGAxBEAAAACLIQACAABYDAEQAADAYgiAAAAAFkMABAAAsBgCIAAAgMUQAAEAACyGAAgAAGAxBEAAAACLIQACAABYDAEQAADAYgiAAAAAFkMABAAAsBgCIAAAgMUQAAEAACyGAAgAAGAxBEAAAACLIQACAABYDAEQAADAYgiAAAAAFkMABAAAsBgCIAAAgMUQAAEAACyGAAgAAGAxBEAAAACLIQACAABYDAEQAADAYgiAAAAAFkMABAAAsBgCIAAAgMUQAAEAACyGAAgAAGAxBEAAAACLsXwAfOWVV9SyZUuFhYWpd+/eWr58eahLAgAAqFGWDoAfffSRxo0bpwkTJmjVqlXq2rWrBg8erMzMzFCXBgAAUGMsHQCfe+45jRo1SiNHjlTHjh312muvKSIiQm+99VaoSwMAAKgxzlAXECrFxcVauXKlxo8fH1xmt9s1aNAgLVmypMJtvF6vvF5v8Hl2drYkKScnp2aLrWGFhYUqKipSdna2fD5fqMs5I2fDZ5DOjs9xNnwGic9Rl5wNn0E6Oz7H2fAZpP99bxtjQlxJ6Fg2AB4+fFh+v19JSUllliclJWnTpk0VbjNp0iRNnDix3PKRI0fWSI0AAKDmZGVlKTY2NtRlhIRlA+CZGD9+vMaNGxd8fuzYMaWkpGj37t2WbUDVJScnR8nJydqzZ49iYmJCXU69xXGsPhzL6sOxrB4cx+qTnZ2tFi1aKC4uLtSlhIxlA2CjRo3kcDh08ODBMssPHjyoxo0bV7iNx+ORx+Mptzw2Npa/jNUkJiaGY1kNOI7Vh2NZfTiW1YPjWH3sdusOhbDsJ3e73erZs6fmzZsXXBYIBDRv3jz17ds3hJUBAADULMv2AErSuHHjNHz4cPXq1UvnnXeeJk+erPz8fK7pAwAAZzVLB8CbbrpJhw4d0hNPPKGMjAx169ZNX375ZbmBIZXxeDyaMGFChaeFcXo4ltWD41h9OJbVh2NZPTiO1YdjKdmMlcdAAwAAWJBlrwEEAACwKgIgAACAxRAAAQAALIYACAAAYDEEwEosWrRIV155pZo2bSqbzaZPP/30Z7dZsGCBevToIY/Ho9atW2vatGk1Xmd9cLrHcsGCBbLZbOUeGRkZtVNwHTVp0iSde+65io6OVmJioq655hpt3rz5Z7ejXZZ3JseSdlmxKVOmqEuXLsHJifv27atZs2adchvaZHmnexxpj1X3zDPPyGazaezYsadcz2rtkgBYifz8fHXt2lWvvPJKldZPT0/X0KFDdfHFF2vNmjUaO3as7rrrLs2ePbuGK637TvdYHrd582YdOHAg+EhMTKyhCuuHhQsXasyYMVq6dKnmzJkjn8+nyy67TPn5+ZVuQ7us2Jkcy+Nol2U1b95czzzzjFauXKnvv/9el1xyia6++mqtX7++wvVpkxU73eN4HO3x1FasWKHXX39dXbp0OeV6lmyXBj9Lkpk5c+Yp1/n9739vOnXqVGbZTTfdZAYPHlyDldU/VTmW8+fPN5LM0aNHa6Wm+iozM9NIMgsXLqx0Hdpl1VTlWNIuq65hw4bmjTfeqPA12mTVneo40h5/Xm5urmnTpo2ZM2eOufDCC81DDz1U6bpWbJf0AFaTJUuWaNCgQWWWDR48WEuWLAlRRfVft27d1KRJE1166aX67rvvQl1OnZOdnS1Jp7yZOe2yaqpyLI+jXVbO7/frww8/VH5+fqW31KRN/ryqHMfjaI+VGzNmjIYOHVquvVXEiu3S0ncCqU4ZGRnl7iCSlJSknJwcFRYWKjw8PESV1T9NmjTRa6+9pl69esnr9eqNN97QRRddpGXLlqlHjx6hLq9OCAQCGjt2rPr376/OnTtXuh7t8udV9VjSLiu3du1a9e3bV0VFRYqKitLMmTPVsWPHCtelTVbudI4j7fHUPvzwQ61atUorVqyo0vpWbJcEQNQ57dq1U7t27YLP+/Xrp+3bt+v555/XO++8E8LK6o4xY8Zo3bp1+vbbb0NdSr1X1WNJu6xcu3bttGbNGmVnZ+tf//qXhg8froULF1YaXlCx0zmOtMfK7dmzRw899JDmzJmjsLCwUJdTZ3EKuJo0btxYBw8eLLPs4MGDiomJOSv/51DbzjvvPG3bti3UZdQJ999/vz7//HPNnz9fzZs3P+W6tMtTO51jWRHaZSm3263WrVurZ8+emjRpkrp27aoXXnihwnVpk5U7neNYEdpjqZUrVyozM1M9evSQ0+mU0+nUwoUL9eKLL8rpdMrv95fbxortkh7AatK3b1/997//LbNszpw5P3v9BqpmzZo1atKkSajLCCljjB544AHNnDlTCxYsUGpq6s9uQ7us2Jkcy4rQLisWCATk9XorfI02WXWnOo4VoT2WGjhwoNauXVtm2ciRI9W+fXs9+uijcjgc5baxZLsM9SiUuio3N9esXr3arF692kgyzz33nFm9erXZtWuXMcaYxx57zNx2223B9Xfs2GEiIiLM7373O7Nx40bzyiuvGIfDYb788stQfYQ643SP5fPPP28+/fRTs3XrVrN27Vrz0EMPGbvdbubOnRuqj1An3HvvvSY2NtYsWLDAHDhwIPgoKCgIrkO7rJozOZa0y4o99thjZuHChSY9Pd38+OOP5rHHHjM2m8189dVXwddpkz/vdI8j7fH0nDwKmHZpDAGwEseH2J/8GD58uDHGmOHDh5sLL7yw3DbdunUzbrfbtGrVyrz99tu1XndddLrH8tlnnzVpaWkmLCzMxMXFmYsuush8/fXXoSm+DqnoGEoq085ol1VzJseSdlmxO+64w6SkpBi3220SEhLMwIEDg6HFGNpkVZ3ucaQ9np6TAyDt0hibMcbUXn8jAAAAQo1BIAAAABZDAAQAALAYAiAAAIDFEAABAAAshgAIAABgMQRAAAAAiyEAAgAAWAwBEAAAwGIIgAAAABZDAAQAALAYAiAAAIDFEAABAAAshgAIAABgMQRAAAAAiyEAAgAAWAwBEAAAwGIIgAAAABZDAAQAALAYAiAAAIDFEAABAAAshgAIAABgMQRAAAAAiyEAAgAAWAwBEAAAwGIIgAAAABZDAAQAALAYAiAAAIDFEAABAAAshgAIAABgMQRAAAAAiyEAAgAAWMz/AxBCni/4r3cjAAAAAElFTkSuQmCC;clipPath=inset(11.33% 9% 10.44% 11.33%);" parent="1" vertex="1">
          <mxGeometry x="315" y="84" width="461.7" height="340" as="geometry" />
        </mxCell>
        <mxCell id="muNE2bOqfH17zkRgkUGe-2" value="i" style="text;html=1;align=center;verticalAlign=middle;resizable=0;points=[];autosize=1;strokeColor=none;fillColor=none;fontStyle=1;fontSize=15;" parent="1" vertex="1">
          <mxGeometry x="486" y="420" width="30" height="30" as="geometry" />
        </mxCell>
        <mxCell id="muNE2bOqfH17zkRgkUGe-4" value="" style="endArrow=none;dashed=1;html=1;rounded=0;strokeWidth=2;" parent="1" edge="1">
          <mxGeometry width="50" height="50" relative="1" as="geometry">
            <mxPoint x="290" y="108" as="sourcePoint" />
            <mxPoint x="502" y="108" as="targetPoint" />
          </mxGeometry>
        </mxCell>
        <mxCell id="muNE2bOqfH17zkRgkUGe-5" value="y(&lt;sub&gt;i&lt;/sub&gt;)" style="text;html=1;align=center;verticalAlign=middle;resizable=0;points=[];autosize=1;strokeColor=none;fillColor=none;fontStyle=1;fontSize=15;" parent="1" vertex="1">
          <mxGeometry x="250" y="91" width="40" height="30" as="geometry" />
        </mxCell>
        <mxCell id="muNE2bOqfH17zkRgkUGe-6" value="i+k" style="text;html=1;align=center;verticalAlign=middle;resizable=0;points=[];autosize=1;strokeColor=none;fillColor=none;fontStyle=1;fontSize=15;" parent="1" vertex="1">
          <mxGeometry x="529" y="420" width="40" height="30" as="geometry" />
        </mxCell>
        <mxCell id="muNE2bOqfH17zkRgkUGe-7" value="" style="rounded=0;whiteSpace=wrap;html=1;fillStyle=zigzag-line;strokeColor=none;" parent="1" vertex="1">
          <mxGeometry x="503" y="104" width="42" height="316" as="geometry" />
        </mxCell>
        <mxCell id="qhbcBc7V0f4V-8aCXUVs-1" value="a" style="text;html=1;align=center;verticalAlign=middle;resizable=0;points=[];autosize=1;strokeColor=none;fillColor=none;fontStyle=1;fontSize=15;" parent="1" vertex="1">
          <mxGeometry x="303" y="420" width="30" height="30" as="geometry" />
        </mxCell>
        <mxCell id="qhbcBc7V0f4V-8aCXUVs-2" value="b" style="text;html=1;align=center;verticalAlign=middle;resizable=0;points=[];autosize=1;strokeColor=none;fillColor=none;fontStyle=1;fontSize=15;" parent="1" vertex="1">
          <mxGeometry x="760" y="422" width="30" height="30" as="geometry" />
        </mxCell>
      </root>
    </mxGraphModel>
  </diagram>
  <diagram id="7KrlId7Yo-JBl6LokOoJ" name="graph_automat">
    <mxGraphModel dx="1434" dy="754" grid="0" gridSize="10" guides="1" tooltips="1" connect="1" arrows="1" fold="1" page="1" pageScale="1" pageWidth="1169" pageHeight="1654" math="0" shadow="0">
      <root>
        <mxCell id="0" />
        <mxCell id="1" parent="0" />
        <mxCell id="F7d6KHgLb2zkoxTIFbRi-1" value="" style="shape=image;verticalLabelPosition=bottom;labelBackgroundColor=default;verticalAlign=top;aspect=fixed;imageAspect=0;image=data:image/jpeg,/9j/4AAQSkZJRgABAgECWAJYAAD//gAOS01fNDA1MGkgUTc2/9sAQwABAQEBAQEBAQEBAQEBAQEBAQEBAQEBAQEBAQEBAQEBAQEBAQEBAQEBAQEBAQEBAQEBAQEBAQEBAQEBAQEBAQEB/9sAQwEBAQEBAQEBAQEBAQEBAQEBAQEBAQEBAQEBAQEBAQEBAQEBAQEBAQEBAQEBAQEBAQEBAQEBAQEBAQEBAQEBAQEB/8AAEQgA+gFlAwEiAAIRAQMRAf/EAB8AAAEFAQEBAQEBAAAAAAAAAAABAgMEBQYHCAkKC//EALUQAAIBAwMCBAMFBQQEAAABfQECAwAEEQUSITFBBhNRYQcicRQygZGhCCNCscEVUtHwJDNicoIJChYXGBkaJSYnKCkqNDU2Nzg5OkNERUZHSElKU1RVVldYWVpjZGVmZ2hpanN0dXZ3eHl6g4SFhoeIiYqSk5SVlpeYmZqio6Slpqeoqaqys7S1tre4ubrCw8TFxsfIycrS09TV1tfY2drh4uPk5ebn6Onq8fLz9PX29/j5+v/EAB8BAAMBAQEBAQEBAQEAAAAAAAABAgMEBQYHCAkKC//EALURAAIBAgQEAwQHBQQEAAECdwABAgMRBAUhMQYSQVEHYXETIjKBCBRCkaGxwQkjM1LwFWJy0QoWJDThJfEXGBkaJicoKSo1Njc4OTpDREVGR0hJSlNUVVZXWFlaY2RlZmdoaWpzdHV2d3h5eoKDhIWGh4iJipKTlJWWl5iZmqKjpKWmp6ipqrKztLW2t7i5usLDxMXGx8jJytLT1NXW19jZ2uLj5OXm5+jp6vLz9PX29/j5+v/aAAwDAQACEQMRAD8A/v4ooooAKKKKACiiigAooooAKKKKACiiigAooooAKKKKACiiigArlvFmtJ4c8Oa94glRHj0TRtV1dkkk8qOX+zbG4vRC0uQEEzQxwhuuZAV5wK6g9D9D/KvK/jHHcz/DvxRZ2sSzy6ja2mkrDIGMTx6rrGnafOr7WU7TBdS5yQuByVUE0AZnwY1TxXeeGbnTvHGsf294p8PaxNpOq63/AGfaaWNSM+naT4htJhYWKraW6wWeuRafG0aAzpZLNIGmaR29mU5UfQD9P8//AFxzXk/h1EsPiT8RrCK2jhiubLwPrQkQuDNJJpmo6HKZELFA6xaNaRBogqlFUspdd59Wj6H/AOv+HX0GB6jGD0zQBJRRRQAUUUUAFFFFAEUrY9OB39847j+6en14xmoo5Qx4OfmAOOMHpgjPXgcYznr7yum7P4dj7jtn/PX3YsKg9OpB/ixwR0yOv4/kBigCdTkA+3+f8nn15paQDAx/9f689+aWgAooooAKKMj1ooAKKQsB3/Uf1NIGBOMjt39QT6e3+elADqKKKACiiigAooooAKKKKACiiigAooooAKKKKACiiigAooooAKKKKACiiigAooooAKKKKAEPQ/Q/yryj4u2v2/w5pmneY8X9o+OvANqDHIIncL4v0q7aNWzlg6WzB4wDvj3r3NerN0Pvgfmcf57evFeX/EKKW8uPh/aRtCgf4jeHrqXzdzb4dMg1fVGSJQwZpWNkpQ/MEAZ2XarUAMQtF8Vi5upQmqfD0lLI3KCJn0fxVKZLpLPG8zCHWI4pLkEqkawwEjKk+oxnI/L09B0x1+v4djXk+qJbw/FDwJcO6LcXPhLx9pkY4LyLHP4Q1Mxjn+ERvIw5BVQM8c+soePz9OwX/P8Aj1oAfRRRQAUUUUAFFFFABRRRQAU0sAcH/P8An/Ps6q03Rsd/TqMDj8ckj3zjtQBKXHXPHJ5zwMdxwOvXt0700yqM5PTHODjr6gnt9B79ayAzb2yxKYwCoBwQwAyBg5JOMnjOM9qguHISUh5ARGzJs9UHGACoOCSzZI3e6/LQBseacn/WEZzkRyFcDgjeBjuDknPBPTNPEyhR82OoyQ38PBJyQBzj88+lfzRfGv40fFCX9vXTLHSviL44sdM0zX4dJi0e28S6zZ6Mtr9qiWa3n0qK9h082c0u17lZ4fOBRTFIhZ0r+gWXVtVTStPk/tBo5Ht4S0o5aTdACX8pQZCpkIdeSGICuTuLGpR5ba3v5WX3/wBdTCFaM+ZqLTi7a9b2/S1n1+49VaQknBLDBOFDswyRgbVLenP0z06iy9ykgOerRSLzjAw2AcdR689MYx+bH7a3jPxlovwH8WzaL4t1bRro6DfSrf6RqV9p+rvIlvOVazubKSCeBy5jZfIufM3IgjZQQx/If/gmv8VvjPrvivVrXXviz8SNXgtlV7e18QeNNa8QW8KSROIQF1O9uo3WFYwypIlvcL5hDF9tWqTavf8AD+u/9WZM8QozUOVtvXTZLTX7mf1RCbvg4z1xJjBHH3gF5PAGeeoPQ0/zR69emcZPt95ee3QdPz/Ibxn8QviTaftHeDdOh8XeJLTSLvQ5TPptv4h1CKwuA93IJGurVbs2kc8oiKwg2zCGEHEkZnXP2RYa74kjmEc2sXkkDBWZWv5f+WseNrPuLxEmSF41BUlcEOQGQp02rap3V762+Wmpoqt76PR21/4Y+sfOUdTjnHTuOo+91FBmXnk5GONp/Hr+v5A968g8OapqUulQi51N2mO45aUSyYU7toViSPLDKhJYtgouCSGN8anfNdNGmoSKqllVZJl+Z1yVEoX/AFQYkYdsqoIRuFJEW/r9fmVzrqn/AF9x6d5w9/XqMcYyMgdRn1x65FKJVzjI/X3/ALzA/p9e1cLb3F60YcXcki4k+YiMpmMn7p3bRH127txKqWYqpIrdtWlMgDyyPjkb0UcE/cznO7kEsRkqQcHglF7nQ+YB3H45H9D/AIdgTzRUAGVB46kcj0C9Of8A6345JKALVFFFABRRRQAUUUUAFFFFABRRRQAUUUUAFFFFABRRRQAUUUUAIen4j+YryfxxELrxh8JrfeiG28W61q5DNkyJp3gbxJbsipg879VRyx2hdgIO5lz6rIMj8G7n0zxjnOR257d68116CS48feBmEkix2mn+Orl41KLFKz2OiWUfmL/rZDH9okKhOASWcjCBgCHxSY4fGPwynYEvPrHijS43C4x9p8F6lfsjDp5bDRt3f95HGMDqPToznJ9cn36j9Ontnp3ryzx4YotS+Gt5K5iNt8RNPhjO4lGfV/DvibR9jDaQfN+2eWpbaA7Kytv259SgOY0PPKZ565ITP60AT0UUUAFFFFABRRRQAUUUUAH/ANaqc2Sh2nJOT6+vbgt0AI9B0yDVyoXj3d+M56E9RjsM/r7nk0AYWSCcNknOSSB0zk44ITOQPcA4zjdHcsGglbkOY2lV1I28LvDcZGMc9Dzkk4OTufZ064545wSewxnbkjgdevem/Z16YH5+237oUf5+XrxQD10P5V/iNItx/wAFELW2WAPPZeLLZJYmMQlnlkvBLFC1n5kTXMwjPmwCPNxLy2FcZX+kjU4Hk0rTt6NJ+7tkMUm4uyshJyw+ZcDEjZ252YaU4KjsZvh74Dm1VdcuPBXhKbWxKbga1L4Z0WTVhcEZ88am9g1+s3X9/wCeJRxtbvXWi1TbtUYAAUAjoAAQMbO3HHbr7GnJu26t5swhR5HJ811KTe22iXp36aaWPy0/byhYfs+eKxJFAVTSb6INeSGFI3e1YFWlZx8kYEaKXkjCBwc8HP42/wDBL2TT5PG/iRLe/wBOBE8kYt2fz5ZLa1jeIJGsAdRFDIUaJlLsRtdmkc4r+svVvDeh67Zyadrej6XrFhMGWWx1SwtNQs5Q/DCa0u4JoJVfoySRspHGM8VzWifCb4YeGbme88N/DrwJ4eurkn7Rc6F4P8PaPcT5VV/fT6fpltJJgKB8zE4AJ6E1rGqlHlaf4W8tLd7999DOpheepGfNbl8teny6db9D8nvHa6dbftM/Dzzlt4r690m7di8TCaWSH54jZxCIQyhlJMw2RxjaGPOQftq2a3NyZEjSCLyo08yX5N8wjJ3hmxG07JtUKFZRhw+SBt+pZvCPhm5vItSufD+iXGowR+TBqNxpWnzX8MRJZo4ryS2eeONiSTGkiqSS2ADuGidJsG3Zs7U7yNwMMDBtqhRw0bAlVAUYG4LjvilKrzJe7a2m+ny7f8Nuaxpct/evdt3a16ef9aHjHh6NZdLhKiOCXMsqAQvvkPmSbgDIRuVAF+cHb02gk7DoT+cjpgDYdsfl/Zy3mq4AdBgqRn70asSFG8EEthvX1soERUSNVRRjaFAXBJPGEwMZwCCOOpxSfY4uPkUgE/ewcckkjIznnP8As98DGM27u+vz163tsXyeb/q39fd214iwiMcMauAyqjgxx7VAjjuN0fHc/OShAzIWDEx7Mp0lqWZ8ADGzIIYscADIYYAUHJC4c4/AGtYWqDO1QM5PC9TnPXy89eSM4zzg5OXCADpwcDB69uuAOoHQ/iOM1JaVhwHy/KFxuOPmA42rj8fbt3yeaKmVcDH+HsOhBx07cenFFAD6KKKACiiigAooooAKKKKACiiigAooooAKKKKACiiigAooooAa/T8//QWryTVfOk+L3hFVJMFv4C8ezSKI9wE1xrvgu3hYzbwI8xxzqsfluZCS25RHhvWpDhST6N/6C1eWS3TyfFaC03DZbfDy6useUoZXvfFttbk+eFMiqy2JBizsJTcQxXIAG/El4YtK8P39wiMmn+PvAl0rFhiIyeJLSw8wM5QbkF9tAJIIbgE4B9PgyoCntkHkY4wCM9eMDOeeQPr5j8Vpo7fwJrN7KSi6ZLomqMy7BtGm6/pV2z5kVhlVjJO7GOgIODXp0XLP3/eSgZ7DJwMe358nPbABZooooAKKKKACiiigAooooAKKKKACiiigBhQEg8cY7HsMeuPpkH8acBgY/wA9MUtFABRRRQAUUUUAFFFFABRRRQAUUUUAFFFFABRRRQAUUUUAFFFFABUcjbR+B9+mO3f6f0zUlQyNwcY+6e/sG9M9ORgH8KAPOtf+JGl+H/GXhbwbdWmpy3XigyqupW0Nu2laNJI00OkQ6xPLcx3cUviC9tLyw0kWttcq09pKbp7ZDEZPQ433cn+oz8pbPODgjpngc55PHzz42ihl/wCFkeJQba3l8MX3w6lS+ntFvGt/+EQuLTxTeKY4wZhGtrr91GrRussMlxJOmFA3/QceFLYx1cfMfUkAZOc9hnpj8aALdFFFABRRRQAUUUUARSkYx37depyPQjkbgOpJ4xjOfNbWRJfidrq7gXtfAPhjcuIiyfa/EnimXcHA8/bJ9nxhyIsp8oJ3GvSZQO5/D8yPfk/iQDjoc+X6JDC/xH8eX3/LZNC8CaUxDLnyki8QaioIX5lbdfORuO0g7gM5yAT/ABRQN8OvGzF3RY/DOqzs67lZPs1v9rLLtjnb5VhLZWKUnDDYzYFd9p8y3FrbXKnK3EEFwrfdDCeJJQcMA2CrA846gYBrlPGtt9t8G+LrP7n2rwt4hhyUDspl0e9QEJ8qvg87dw3dyAeNTwrKZvDfh+VipeXQtGlZlG1WZ9Os2Yp8zALkkgbjtPdiDQB1FFIOnP8AT+nFLQAUUUUAFFFFABRRRQAUUUUAFFRO2D36jv6+n4nvx3ORjEcc28kAHhgpwc4PcHPcd8ZH44wAWaKQHP8A+rHr7n/P1paACiiigAooooAKKKKACiiigAooooAKKKKACiiigAooooAKKKKACqs/3SBjLFwCR0JUY6e+Ocj3q1VWU/OgIPMgx06BlHTv0yeDxx1zQB4VbW97rngX4wCVILeXWNb+J1np7bmdPs9laS6JY3MjRlZS7tpyzyIG8yPPlxsQiEeseFb46n4e0HU2kjmOo6Jo9+ZYiDHKbzTrK5aVCcEo7OzqSB8pBIHIrgvhObS/+Hen3NsjC21ufxRqIWa4W6LvrHiTWpZMy/dk3mUkKp2xqwiydma2fhRfpqfw98IXUe4J/YVtbFHRY2RtPM2nOhjR5I08t7MxhFd1AXIYnkAHpdFAGP8AP4dqKACiiigAooooAgm6dM9Pp1OPyxn+XevLPC1qF8ZfFO+Dljc634VtAgHMYsPCOnpgDJwjtO0gIxncT1zXqVwRtbJIGF6derY/Ppj0z6c+S+AfPk134sXMuzypviNJbwBIirmKw8J+GrfDMXYSt53mneFQbMJj5SzAHeatbfbdO1GzYnF5p1/atjg4uLO4hwCrLllEnVSOSAWA5GN8NXjfwD4KMbiRB4W0JFcMH3+Tp9vBneryK2BFkkSSHIPzMTk9R8vmRg7SS6L1A4LAdAeh3Dquec9OK8++DvkxfDvwvawszR6fb3ulAvkMDpOsanpzq25UXKNalTwFJHy7lAZgD1gUVEH6fTtjsB/j+HU8ECpaACiiigAooooAKKKKACiiigCN1J5/H8ePf2wcc44HU0xYsNnjqOgYdPxI7ngcH6Cp6KADFFFFABRRRQAUUUUAFFFFABRRRQAUUUUAFFFFABRRRQAUUUUAFFFFABWVq05ttOv7kEA21lezgtnGYYJ5QTgFuCgJxyRkVq1xXj+SRfBPjAwf6/8A4RbxCsGBuPnSaTeiHjgEFypwTyvJwMigDK+GdvNB8PvA63ATz/8AhGtBuLjy4xFH591ZQXkpSMKvlAyXBwNqvyd/z5qn8JJpT4PW1nsf7Ok03xH400hbbcWHlaf4s1mO2mHmfOPtNu0U4UnCCQBeMV0vhW0k0zwt4d06bAmsfD+i2cmz7nnWukWUDFTjDDdE204yRjjkAc98O5ZfM8cWcwANh8RvFSRqsKxkwXr2GqwsfLdvMLC/Y+YxSRxgyLuzkA9RU5Gfx7d+e31/HrS01Puj8P1AP+f6dA6gAooooAKKKKAIJhlT64XHHOTuHBwfbtx1PFeUfDk3DL46uZop0Nz8TPGbRmdkZnt7aew0+GSLYB+4MdqfLQjcFGGJHJ9YlxjHHJQcnHViP6j868h+FMzXXhvVrx5JJTdePfiM+50jidUh8baxYRoqRMcxrFZKiNu3SIolcB3IUA9NcspDhVJVt3IAwAysx5+bkA8DjqOmK80+Gmn29r4e1LSLa4uI49J+Ifj9A0N48rZ/4TfWNTFtPKwdmhZNRVJrTCxoh+zjYIwK9IfaOwIbHGSp7YO7PT8ANvXk88N4AMSaj8RLKNZFNn8RNXeQPyC2raN4b1vfEdxBjk+3s38OyQSLgkbmNwPSI0YYz1A9cZI4JPowHPsccYzVsUxQNoPt6D/D/Pp2D6NgCiiigAooooAKKKKACimM4XqQPqcdgfQ+tKGB/wDrEH+uf0Hp14oAdRRRQAUUUUAFFFFABRRRQAUUUUAFFFFABRRRQAUUUUAFBoooAjLgZ9s9vT8R2/mD3xSCQHoR27Y7Z9T256dOecYpkke7+Ijr3Uclic8nt+o+mKRI9pPJOQf4lPrjrnpnr7ZPTFAFmiiigBD/AI+g7H1/z+FedfFFpB4C8VLAwWa40aazjfcyhDfvDZByU+fC/aS2E+ZsFQRuyPRWOFJHYZryv4s+fN4Qmsba4+y3GpeIPBmlRS/MTm88YaJHIg2oxZpbZJ48EAAuTvQfMoB6AqrGCo2gLmJQFO0KnyKoHJXhf+AgdeeeE8HobXxV8TbbcjCXxPpGqx7Qcouo+ENEVg7MzF2M9jK4K7VCsEVcoTXoBUZZuTlmPQZyzEgeuMdDnI4yeDjzHwzbXFt8TfiO0lwj29/pPw8vreDLb4Wi07XtNuGky2MTNaQlGRVyYyDuKg0AeuKOPwH9f8/r1Jp1NXoPoP8AH+WP/wBeadQAUUUUAFFFFAFaRhuXn/lrH75AdQOAOQDnHoxJ6AV5H8Hrpb34c6BqEKCNNSbXdSiHneaWW/8AFGuXYfzCA7+YsySHcBsD7duUxXqt5KtvDJPIdscKvLIxGQscIaWRsAZO1UZ+OwPG7IrzT4S2tnB8Lvh8mnn/AEFvCGhXMDP5m54ryzS+WRjIofMxuDL8+1xuIKgg0Ad+zZ6rjAG5cbhxg/MeQue4x15PFcH4Sm2eOPibZiGVdmpeEb8OyhYplvvCsEZaL5QzlHsGSQ7mIYKvGzjvA21wNwBGT1yOoH3iMcgkgHlj33V5h4dkaL4yfEK0MSpHe+C/htq6SiGRGuJYrrxfpc4aUnypPJSK3UIi+Ym8+YxVkwAe0ocj6cenuPxwefQ5HanU1en5f+ginUAFFFFABRRRQAUUUUAQyKWBAIGSecjI4XnB6/T0+tMSMqeoOcdue2enPIGP1XgZqzRQAUUUUAFFFFABRRRQAUUUUAFFFFABRRRQAUUUUAFFFFABRRRQAUUUUAFFFFAEchwPzP5Efh359vbJryr4lJFPH4HtJVYi5+JngpkAKq5k069u9YRiWOCEk00SOAMhFOBkAj1ZxkD6/wA+D+h/HoeOa8r8bNaSeIvhfYXKq8k3ja61C1XJ3CfSPCHiS5WXCqSUi+0fN8yoMhXyGCsAehhyqpyvzqmc8AttyP72cYGMn1yckmvPLaGCD4sanKJY/tep/DvRY2hGPM8jRfFmvBZQS+WUPrzRMdihSqAO+4qvopGMKCCFwD1OcDHGP5c5HJ68efX4gg+KHhudpNk9/wCCPFVlHEQ2JFstc8L6i7B1BG6MO2Mkfu2YjcQRQB6dEcjv0U8nOOo/mD/+rFS1FERjjuF9PQ/547YPQ1LQAUUUUAFFFIen5/yJ9DQBx/je6jtPCPim6mkEUVr4a8QXMsnzfu44dG1GV5PkDP8AIo3HarMBwoY9cT4cafFpHw98B6TF5kkOm+CvCVhHuPzNFZeH9PgUup+Ylgo3Er977w+8KZ8Xb+10z4Y/EG+vf+PSDwZ4hE5DNExjn0q4tWxKjI0bH7T8rh0KnDqy4U10emQJYabp1onEdpp+nW0al2Y7bWyht0BbqcCMHexyxG4DnIANGQqTyAGxjBDAnnHY84wCeTnuMA15oq3Nv8Z4XDL9l1T4X3EYGBj7VovjGOXOcbhvttYbKjKkoDnnn0k8sADywHy85BIyCC3UgElwByrZ7V5p4gkis/ib8L7va4+3af8AEDw+pwFUedpmi65GjgzA9dEnKnZKwLEAxhixAPZY+nft1x6Y7eoAPpzxjFPqKNs/+PevUYH+eM9+ARmWgAoqN5NuemB9T/Lp/n3xH52TgjB44w4znjIzgEejAkHkg5oAsUUgOQOv5f4f5+lLQAUUUUAFFFFABRRRQAUUUUAFFFFABSZ+v5H/AApf/rVTkD5Gwc8ZDHqAADjDD8c9x2NAFz/PSio4gdoz6eue7d8nNSUAFFFFABRRRQAUUUUAFFFFABRRRQAUUUUAMfp+P9Dj9cZ9Rkd68o8SXLt8RvhtYqiuGsvHupSPtdjF9j0fSbKN92wxLvbUmTc7ITgogPzAesOMj8//AEE/5/8Ar15heP53xQ0W3Mbn7D4F16787YBGjX+vaLYhC+c75Ut5CqY2lELnBWgD0URhiT3DdeemRjgEdM9AM5/GvOvEtui+OPhzemby3U+MNLWPy2Pn/btAS7C7/LYLsOliVVaWIPtwA7Kqj0lFIU+wyPxKsffBIHuvI9K828dbLfV/hxduCTB48trRCJGj2f2roWvWOWQfLKrFgjoxK8hkwyg0AelRA4GfUHv0w4/Tpj8anqCE5VevRR26YY5/zyTz04qegAooooAKQ9D24P8AKlpr/dP+f/1ZPGe1AHkXxsS2m+GPi20vEaa21KzstHkhErxGX+2tZ0nSkh8yMF4/Me7Ee9fmXdlWBIavQTGB5kaghUJjABAChMggucZIwOCdx5Iya85+MNxKmg6FYxRrMNY+Ivw50mZWTePs1z4usJZ28sowJjitDJ8w2IF8zI2gj0rO7BJGC7OcZAIZmIwOoJGCuc55LGgCMEMRnP3dvyjA3Ack/wB0jgcZPTI4rzrx9ILHU/hlqe+FBB8SNLsWeUxoxh8RaJ4g0ExRMVJaSW7urSNEhZHfaMswBB9Iy2egH3uh4BGTgngcjHToM8815n8XN8Pgz+0IbdLubQPEngTxBGjKXKDSPGmgXF1cRgFWDRWJvGVidqEnKlQQQD16JvlHuM/dx1wOnqSO/XIAx1Fmqse3nGR8zLgYP3ZCo544yPk+vsALJ4BPoDQBgeItWh0HRdY1y6Kra6NpepatcsxCoLfTLO5vZt5wcL5Vswc4OFLE4HFfNXwFsdT8LaxJpGr3utXd38RPAHhf4u6mNVubrU44vG+p3lxYeOnj1CS4urSBbh73wyI9JsJY9PtoLaE6fbW9rhK9Z+Nksw+Gfi+1gu/sM2r6dF4dhuTbLeeXL4n1Sw8PR4t2V0lMh1MxbGRkCvvkG1WrH8Uxf2b8TvhBfRQIIpx4/wDBTTArGkUF74csvEFlAEBVB5tz4PiSJAjOpUCNVTzGAB7bHzjg9M8k9mznHvuOT1OOgzzPUEPIB7EHn16HP45+npntPQAUUUUAFFFFABRRRQAUUUUAFFFFABTdo/yF/wAKdRQAAY4/z+lFFFABRRRQAUUUUAFFFFABRRRQAUUUUAFFFFAEUv3SeOAx5H0H9Tx9D2ryy3a6m+L2qHyk+w2Pw60KITb13/a9R8T6vO8WwsXKeRYK4kKKnG0OWGB6nL079D098e/Xj8RkZ7Hy/wANi3n+IHxGukJM9ungnRpsxyKFWz0S+1aJVd28t1P9uFj5SKAWVZCzLhAD1BTkH3B9OwAHvz2/HPNeZfFC5ubLTfD99axQS/ZPH3gRrj7Q21I7S68RW+nzyoQjkzot4DCo2FpCq7wrGvSjhc49xxgDnIwMn2BPrx0wc+bfFYXf/CEaxcWIV7myuNB1WNZMBSuk+JNF1KZTzhj5NvNtU9WIz1IIB6TD8qgHPykD1PRh2Gfz+vSrFVI23ZYYC72x0P8AGwz2xnIO09D3+Xi2P6n+dABRRRQAU1vun/PTn/8AX7djTqa3T8/5GgDy3x6k13qfw6tI2Cq/xB067mPnRxlodJ0bXdTYANIjy5aOLMcQkcLkshUMR3SD7gxuOOSCCNwxkE4x8uflB/HIGa868Wolz8Q/hdbs0nm2E3jfXlRBEEZbTwumj5lLEMFV/ECbfKUt5hAZhHuJ9GIB3N6ZPU4GPlb7vQZ6Z6jnsKAGshyCpJwW2g4IAxgjggZ5IweNpJAJAFcT8TtG/t34ceOdJ/fq9/4V1xImttqXSTR2UtxC1sZiYxMssCGMkBBJgn1HchlAAVeSM46Dpk5+9k/KDxz83bNJPFHcwy2siExXUb20qopOYrhfJf1wTG7YyTg8+lAEOgX66npGl6mh3JqWm6fqKksCWF5aW90XO0Ffm87Py9/atxidufbn8jnpwf69ucV5f8IZLg/D3wtb3ez7VpunPoc4ikMieboN/daOQGYKxKrYKXyqMrfKUBAFeoFgVznrg+noTx6Ackc8eooA8m+KE1y0XgzTbaWCKTWfiR4PspVuE83zrKxvLjXL+OFTFKhmNvpTFGcJ5e0SCRJAprL+K4gg0/wZ4jmeBP8AhHPiZ4H1Q3E1u0rQw6nqcnhm+aAKpaKWez1+W2WVR+78wh9yls6fjCI3vjv4W2amJo7PU/FfiS4icguy6Z4XuNNtpIgNx3Q32u2zFxgYcru3soLvizbNL8NfGrqpeSy0C71eJVi88rLoHla5CY4MbnlVtOVoxHucSKuwb8ZAPUYSQMEAbcg9STjKk4zxgpjB7YParVZOmXUV/a2t9EwaK9toLuMjcN0dzBHcxnaQCvyy8ZwRkKRnitYUAFFFFABRRRQAUUUUAFFFFABRRRQAUUUUAFFFFABRRRQAUUUUAFFFFABRRRQAUUUUAFFFFAEE33WIwcLxz3wxH8h/P0z5n4FjEurfEbU/Ie3e+8e3dsS8m8XEWhaBoGixyx7sbIt1rMixAZU5DM3Jr0qfG3b/AHmjXkYHJK9RjH16Hp06eX/C1IZ/D+oajBcJdx614x8d60k6rKqFL3xZqaRoomBdfJito4GwdnyHygsW2gD04gSY5bjuN3OSMZ46jPTjGTxXG/EGzN14G8X2ih2afwxrygKGaQyLpV1KgQIRJu82FFXaQQ+CuTiu4RdgPpyeh65B6bR+f+FUr2NZ4ZrdgSJ4pICMA5EwaM5GORtfocr0BBORQBn6BqC6no2k6ihcrqGl6ZfKWAVsXdjb3Y3YO0HEnI7HPQnnoV5H4/5/z26dq8v+Et9NqPw68HS3VxFdXcOhW+n3tzBG0MM15o7zaRdukLohT/SNPkBjC7QwwuVwT6eowPxJ/M/59vTjFADqKKKACmOePqGHTP8ACf64+vSn1HJ0+gPr/eX0/n/TNAHlUrTXfxctF3xG20X4c6g8kZil8xbjxF4ssIYZUnMfkYNv4YukdBJ54JDFPKZWr0dowy9c4bcMHkfxYB7987srjA9x5r4aNzefEn4lXMslvLaWFl4G8P2ywlDLBcw6Zqet38Ny4+ZSTrdrIsRwqhlYfNI2fUVQICFB/i47ZA2kZ6n1OeCM47YAKezJAwAMk/eGeAccHHJyc7uvHYAVOUIToNwyAQpByc7TwBznGAATnA4wcs8soc7R1BOAD6KfvE44BAOOc+3MzH93jHzDH6LnjPYkkDkdsZFAHmHw8L2OqfEXQJHcrpvju/1W0DrbIBp/jDTLDxNEYVgfd5a6jfatCPPjim3REMHULK3qn8JySAM4Bx1OB+HOSD068YBryua4Ok/Fa0hMkK2vjTwXchYtrCZtW8E6lHMNpWMRyLJo/iOdX3uZlFpCEQxeYU9QPK9SDjHJGTtIBIzzyMcDBBBPHFAHl06zXXxdtABbva6J8ONScZfbcx3XiXxVYW6MqbSVjks/Dc8byFgc4WONgWZO81KxXUdOv9PbaqX9nc2LfKTtW+tpbRnIwGOwTeYw3AkDGeRXCeHojc/Ev4i6m1vsa00rwL4bS6SZmMwtLPWPEM8BhGUheCXxBGSfvsHG84AA9JJAJ2Nlsg45znkDAH3RkY56fxZxwAcD8ItRn1P4ceCZ7xZxfw+HrHTNQW5BWZdU0VW0PUxKOocXumzgjJB68nJr1AcgH1Arxz4YKdL1D4heF5HXOiePdX1OwhWG3gWPRfGyQeLbEpHBNJmIX9/rMIlmWCWaWGZvL6s/sKnIx6cfljj0OO/oeOetAD6KKKACiiigAooooAKKKKACiiigAooooAKKKKACiiigAooooAKKKKACiiigAooooAKRuAT7H+VLSHofoaAMq/ultLe4uZCAlrFNdPk4BW2iedvmLD5dsRyWI6g5444b4Upcx/DjwU18tsl5P4e0+9uUtARbefqEcl/J5GcOYi1z8pYZPJIPaX4p6lHpPw/8aX0s8duYvDmq28MsrlE+039s2nWyEghg01zexRJ5Z3eY6rHg11Gg6dFpOkaVpMQ2xaVpmnabGgZjsTT7OC0CbnZnfYItqszMxI+YkkmgDezlf+BHufUke/pj8+O1NmYNyOFbOQD0BznJzxu9Oc/NjiruQF5+p/MZ9fXnHXsOarOwOR7HliSAGB5JAHUkAcnucUAeb/DOQR6XrmmbY0Oh+OPGemBYm3LsbXbjVLcspZijPDqschjBC4YbQA4r1Jfuj8vXocde/wBe9eSeCill4y+KWlKkUXma/oPiWNVY+bNHr/hiwhmuniaZyA99o13BuVIo3e3OxS6s1etKcg/X0PfkfoQfb8M0APooozQAVVlYkFRwWG1fvDklV75xz2xk8EjGasMePf8Az/n1HGOcVxPj3xFH4V8I+IvED5LaTpN9c20ccRmmuNQaIw6VawQK6NLPd6pPZ2sUQeMSyzonmJksADnPhiEvLLxP4iSSORfE3jnxTqMEkcqTB7LTr5fDVkC8ZZciLQm4DFoy20gchfUWZlUFSSe+M9Ao54+ueDgtuIJ7cl4L0aXw14U8O6HORJc6Ro+m2V5MhkYTX8Von9pXIeUmRmuL9rqYtIzNl8tlhk9SsjMDkEEDPTgNjPp6cADHpnvQAgk3YJGOmCeTg9ecnBB7E45O6k2s7E4IzzkEjqeDgsAMcA9vrTXYZBIBOcDg5BORngZIIPOeM9hjl4kKrng89MBm524GcgnjGePyAOADy/4reXpOlaP43Kv/AMUBr1l4mvniB3Dw68Uuj+KicZykGg6jdalKrAbhpg+eIrur0xJFmhQxsro4UJLE29ZBIPllRlyrJIrLJHIpIZSGXPBqK+s7bUrO7sb2FLmzvbWe0vLaYExXFrPG8FxbygfwSwSSRPtIwrk8NXyzc+K/iB8P7PR/gpb+H9W1jxRrkt34X+GHxDu7iL/hE7vQbTTbm9/tXxfqal9R0jxP4N8OWtys+inTbybxhe6Vps+kXrJquotpAB6/8LpDqWleIPEBlMi+JfHPizVbctIkpGn2epv4e05A8Q2Mn2fRVZVLbkVyC2eB6VuwAQhGTznGQOxIycdMjP1wc1i+G9A07wx4e0fw5paSpp+h6bZ6VZ+ayPM8VlEkHnXLqAJLq5YNc3MhUGS4nmkYEvW0AV78MR3C45Gexzt4PJ+hBNAHmd1OdD+KOlzlCLDx74eudGZlgO2PxF4PafV9PWSZVwH1Lw/faukKyMMnRmEYLsyn1iNzgZ9AckcYHzZ9sDnPJ5HfFef+PPCh8Y+H30uHUZND1i1vbDW/DevwWsF5NoPiXRroX2j6qtpODFeQw3EZh1CwkCrqGmXV9YNJF9o81PO7b47afoNvDonxE8O+J/DnxBFwdOg8KaR4Z17xJF4uvkS5kjuvh1qemWNxZeJdLvra1n1OFWu7bUtC09JY/E9vpctpcSUAfRmR7/kf8KM/5wRXhMnxP8Zaaw1DxF8HfGem+GWkcTappup+G/FOs6Vbb/3d7q/hDw9eXOsR23l4e7XRZtfu7HIMtvJGksieneGfFegeL9Itde8L6vYeINFvFLW2paTcLe2shCqXjZ7cs0FzHuVbi1uFhuoH/dzQxuGWgDqaKqGYBghI3kbhGB+9Kg/eEbDzCoPG4LtyMk5yKfHJuIxjBweO4JA7cfl1BBPy8UAWKKKKACiiigAooooAKKP89KKACiiigAooooAKKKKACikz298dR7e/v/niloAKKKKACiiigAprHAP0P+ef8/mMuqvKc8fQevG4547npj6EE55oA84+JHnXenaLo1vvEmu+NPCdg7IgkIsbbVY9b1YMhVwqHS9FvFdiMKHDAhiDXokYJCnAO7JbA2/eILEDGCCG5HPPNeTX0i698V9H05ZGe38CeG7/AMQ3qjPlrrXi6STQ9ADkBl8+DRtP8Q3KKwR0S8WZSysVT1qNgoAOO56A44XnggducYx6Hk0ATsNyj7w4x2zyVPPI54x+dVjEAScnOOeMZHfOCc5HXqPQYqwGyOOPmA6Y7/U+n9PpXdmDAEsQcenBycY6c4zgDn1yDigDyi/ll0f4u6NIWmNl4w8Eapo5CiMwDWPCGrR67YrKoh86OSfRtd1spKZzCRaLD5Ilw59aR+BuB4xkj68cAc54P1BxgYryf4q6beHSdI8WaTFd3OrfD3Xbfxla2Ngivdapp9pZXmn+JtDt4mliSSXVvDOoapDbRuxU3sVsqkyBK7/SdW0/WdJsdY0m8h1DS9TtIb/T76A+bb3dncRJNBOjr8rI8LKXIP7p9yPsKsoANG+1Gz061uL6/urexsbOGW5u729uIrS1tbaBDJNc3VzO8cFvBDGjPNNNIkcaAszAg15db/Gbw3qNr/aeg6P478TaKVMia54f8D+Ir/SbiH7P9pWfTriSztZtat3TbHFPo1rfxSTMqRu+4MeZsxd/GLxBqF5fLo198GdFuZ9P0fTvLtNZh+JfiXTbuNLzxFqMkgls08IeFtStJ9M8P6ZF9o/4SDXre/1u/k/s7TtHgufelhUgbgWPQE/MQpA5yegB4AHAHCgcUAchoHxF8G+KHuING8Q6fcX1kZP7Q0m4nbTNc00xSMjDUtD1VLLWNPKMj/NdWUSEAurPGVc+Z3+u6f8AFHx7YeFPD8w1Twt8PNVsvEHjrWLaGW60K58VWIS68J+CLDWYL6G0vdT066lHivxRa28GpQaXb2eiafqJt7/VY4Y+Z/ad8G+FPEum/DeTxB4V0XxC7fGj4TabJJqFnC90um6j4pW3vbb7cAl49jLE7Ld6cbg2V3DvimhdWIH0foWiaPoOmWej6HpenaNpNlF5VlpelWNrp2n2kT5lKW1jaRQ20Cl2ZisaKHYtJJukLMQDVhQYGeTyCTjnk5P1Ykk/ljAqR0ABxgZBUkY9Bgd+M4GDwM5/u0hYRgDk845BB6Zzxjk55ycHA7iopJAR8pyQTyOeMf7R74xz+XSgCvjn5WYZGQvXBAycHb8ue2eP4s5pR5i4OCx925ON3ooXgEYHQAegJppc8HaSy44BwMYGSegJ5OM8DkdCDT98p6rleeTyenQg8HGQMDrj0xQA7l8FT8o6gkYJ6nggELuGAemR0IrxP4iw+Z8TfgA4APl+MvG8hIZQOfhj4kQqASGZjuwMZKkFsY6e3FCVbGRnrnA6EZOCCM8/Lx0yMECvE/iODH8TP2f+hH/CaeNFIG0Alvhl4m2nnrgr823B69s0Ae1hsBflyc9QDnhepDAgAEe2cgnnNNZmCEkFiOyDPY9O/rgH8ODTCuDn5+cZYdMEccE8DjOSPlPTCk0quBlTkEDcScZycnHy4HGFxnnpjocADQuSF4Az3BzkksOuD19gefQ8+E/FAuvxU/ZvTJCS+OvHySZzjcPg/wCMihKqcYwHXk5wduCCce9fw5HU9Aef4CcZ5J5z2Iz+Brwb4miRvif+zgQSqDx747d12Md3/FnfGoXcw/1eGJO84Un5d291DAHvAjckYOAWJ53dR90rggDBGVwcrgY55rzXW/gx8O9f1e48QXGgTafrl3g3+reGdZ1/whf6rgEIdXuPC2p6O2rMmBsl1BbiWMqpRwwBHpiu/O3t05IGTwATgnuTnGFDdM5qZXbaCxPocn6556kcDp1znjHAB4o37Pnwjj0i80i18E2OnrdzrfNq2n3mq2fiWDVYlVbbWbTxOl+des9ZtSPNttTivxcw3A84M7FwzPCXirWPCniaL4Y+PNQuLy4ukL/Dnxvqj2aS/EDT7W1a61DRdSNpFa2sfxB8NQxPLqVvFBar4o0VR4m0m1zBr1rp3tTysATz0JGSOMdM5PHGTkevXnFcl4u8I6P410aTRtdhl8g3FpfWV5ZTfZNU0bV9PmF1peuaPqCoZdN1vSbtUurC9hBMbqY5Ultbi4hmAO1jk3AHIIOOctzn9OhHsfUVNkf5/p647gc9utfNOqfFDxz8K9Mmk+JHgrWPFmmWF/pumWvjz4e/2FcR6wmrahDpOjT654Q1HVdK1Lw/rNzfXdjZ6nDpb6jobXdwbzT54bHzbWz6Z/iD8SLua3TSfgl4mWCeASPc+JfGHgfQVtZtt0qQ3Vra6nrl6dssMBle1iuNsN1FNEJnSSFQD21mGPT/AL5PY+57f4cVF56L95gvbkqvIxxyO2fw9xzXicdx8fdXFmz2Xws8DQS2shv/ADr3xR8QdRtrn7XGI0t4bW28G6TLE9j5u+WW8Yx3bJ+5lhVw7j8MvFerF5/Efxl+IU7m8kuoLPwmnhvwLpFtBiZI7KODS9G1DWbqLy5YzNJqfiC/lkngjmgNqheFgD2n7VF/z0XHrvQfzHPfp6cA04Sq3OSR2IKnkH0GD1x749OteJN8IGaOWNPit8aoWcy4lXx4GkiLEj90Z9FmT5AT5YdHVe4YhcWL3wJ8QopCdA+M/iO3j820K2viTwl4H8UQQwQbxPFFdR6X4c1WQ3ny+ZNealeSReX+4CFySAe0K69B+ox3PqT3yOcc+xyH7h/nPv6Aj6c/livCJT8dPC8b3An8E/FO0hDNJpcGnXPw18TuHlZsWF5cav4j8KXs0cbRpHbX66Kk2xpJNRiZxGC1+OehQb4vF3hn4j+A7qEotxH4n8C69Np6SuyKyxeI/Ctt4i8OXUQLqftMeoJAY23yGJxJGgB7yDkZoyPX/PT+fFeUab8bfhHq832bTvib4EurrdcobT/hKNIhvA9pP9nu42trq5t7hHtbgpDMjorRSOiMFZkz6TBeQ3MYmgljmhYZEsEqzREZByJo/MiIx3DkevegC9RUAmDDIJIHf5cfyHfjPbqeOrvNX1Hbtjr+P/6vfrQBLRTQwPcdvT/GigCCRyGGAP4uoXrkgAZ5JP1zzn2PnEnxj+FsU620nxF8DrcPd3tgkC+J9Ied73TV36haRxRXLPLc2KZe6ijDvAqkyBcZHos6j5T6zQ+v/PaFuMH8/wCeOB+f37P37Jn7NHiv4PeAvEviP4FfCvWdf1fSrzUNR1m98H6bNqN5eXWtajNcXlxdlfNe4umUPeS7t9wQ4laRDtAB9gw/Fz4Y3MkkMPxC8FPNHEtw8T+JdIhkWB5hbrKRdXUI8tpysCvn/WER5L4StuPx14Pk27PFnhh94bZ5fiHRmLbSqtt26gQ2wkbiM4LKuBwK8Avf2I/2RtQjlh1D9m34NalBL5Zlt9S8BaNqFs/lGIx7ra7ilhOx4YnUeXhZF83h2ZjWX9hT9jRDPs/ZW+AStc7RLt+FXhEKdkflDYo09RDhT0hEWW2uR5iKwAPpqx8Q6NqcQn07VtMv4fMEPm2Op2V7F5xRZPJ32t1Kvm+WyuI928o4YKVIzoNeQqpZpUUAZJaRVCj1JZlCjnGWbAPB7AfN+ifsZ/sp+GxKPD37O3wd0MT8yppHgLRNPjdgwYMY7S3iTzFKgLIFEiYUBlVQo2ZP2V/2dZ41hn+DPw7mjCxR+XJ4bt5EMcLrJDGyyMQ6LIiMFfcpYZYHJNAHqk3jvwdbXJtLnxX4aguRJPCbefxFosU4ltmC3EZgk1FJhJAzKsyFN8RYCRVJArl/EnxY8IaPZubDUYfFusySwWmneFvB9zZ+IfEeqX97MkFlawWOn3Fx9igkmlj+1axqz2GiaTbb9Q1S/t7SCWQeKS/sA/sTyyzTy/spfAKe4uHaae4n+F/hia4lmd1ked5pLN5mnd8u8u/zXJYs53tutWP7Cf7Hekzy3Gkfs0fBrQ57iMR3NxoXgXStEluolkMqpeSaULJ7tEkJdFnMojB+XbnFAHsfw90DWdI0/U9W8VXGny+MfFuqy6/4iXS5rufSdPfyYbHStA0qS8JeXT/D2i2tnpi3ixWi6repf6yLK0/tL7PH6CJEA4KD5uOvccEADPTA6Y49+fmU/sSfspssqH4FfD8CbYZP+JbeKWKOJACV1DcMMATtIDcqQwJUon7En7Kke7b8CvAOGkWX/kG3jYdEjRCudRYooREUKiqnH3clsgH1ALhV+8wyDzjv6YwOATznqSeORwzzEY53jcBgcNn1BwFOR3BOcYBHJ4+XD+w5+ygVK/8ACiPAWDuB26dqEZJcAMSRqgJ+6B14GAD1FV/+GEv2SRDJB/wobwIIpAd4+y6qDyzSEK/9sB4wWdhtRgMEJ9wBQAfVXmLgfPu/iyN444x0QEcD8ueuDXyV42+G/hW1+L/wx0TT4NZ0zwx48b4kXvjPwjo2v+ItM8FeIbzQ/D9hqlpc6p4Z069g0ZXnvr2WW/jt4bO21mVnGo295JJKzXR+wz+ycDx8C/BGWIY7YdXB3Flcc/2xxggcDj+DABxXjnjz9jf9mBfjB8D7Ffgx4MFreQ/FKKeBYtXSKRLHwtpd5bsyLq4x5c/8S4Yq+DwxoA/QOxtbDS7S107T7O2sbDT7aGysrKztktLG0tLSNILe1tLa3jjgt7a2hRIre3hSOKKJRGiqoUDQEwPAweR2fPYc5XsNuSRgrj1Ir5SH7D37KYeORfgn4P3xPM0fza9gNJEbeRmX+29jFoztw6tt3ZXD5anf8MQfsqlWj/4Ut4VVGIyPO8QoDjcf4deBwA7ZA4KsMjgAAHT/ALQ3nHRvhq1vBJOf+F9fBLeoSQAQ/wDCbWyzSnaudsKMZGBG35F38Hn6Djkwg+VgQvAMcnBAQYHyhhjj5T07kd/zn+On7Fn7MFppPgl4Pg74cDXfxl+EVncbb7xau6C78aWEVxuWDxNGAWhTyy3ZNytlMbfY4/2Fv2VgUdPg54fDKsOP+Jr4xZVaBCsbhD4pKB8SMskoUyzKFWVpPLTaAfWbuWOFjk6HpHJwM8jLJjJz6fdGD0xTApOcJIOTxskPTuCUAzx2PfPXgfKX/DCv7LAR0Hwf0UCU7pMa141Usdu3JI8VhwQpPG7vuyDzT4/2GP2XYkMcXwl0xEDbgF8QeOzuby/LBY/8JcC/yfKNxIHBHIzQB9UEy5wIpADzkRScHPI2lcD1JBH9ROpYKAUcnufLlU8kZ429sYHc+nWvk4fsMfsuxAqnwpscMnlnPiXx+coFZcLu8YsVGGIwMHktncalT9iH9mOIDy/hbaoVwBjxP8QAf3agDn/hMc8AADJJwW5O45APrAu2CNsn4RzEHJzxlf6EgHoT08L+JiSt8Tv2eikM0iL458ZtKVjlKop+F/irbJIFjIC7/kDMVQMeWJ4Pnw/YZ/ZgVzKPhfCrsyuSfF3xHHzA71IH/CbEKd6jG1fQY61458Rf2Of2dLH4h/ASytvh2UttT8d+LoLxV8bfE3/Vp8MfFkxKMvjhTETMsbSMjKJfKiSQMibSAfojmUD7kgAHJ2MWOflKgBM9MdeM+wppySCIpMnHJhkHzAZJP7skAk+/tg4r5Zj/AGJv2bCXI+Htz+9DF2Xx38UfmDKeFY+PMrnzHGFwAT2xmlf9iD9mtwQfAF6AVCkL8Qfiui7QAgX934/QEKoGwAAKPukFjkA+pwjfxCTg9kk6enCg4z04PAz14PhnxOSdviZ+zmyQXLInxC8arKyxTbI1b4N+Pdu8KhyXdPkZyE+Vxy+K4b/hiD9m1SGHgPU1Ock/8LJ+L45UKgzj4hc8Kp54+UHqN1eOfEb9kH4A6b8Qf2f7C08Dal9n1f4geLLS/J+I3xbkIgtPhD4+voSJG+IgaLddQQ75VDySFUjJCPIWAP0OPmdkkPPaOReOMH7meOTgkHt6UESYXKuTnkCOQjHHB+Tpg8HqDkcjNfMKfsX/ALPAYyDwXqocvvJ/4WR8W8hlxgqf+FgfKuMkooAzyy5BqGT9ir9niR2Z/CHiTcepX4s/GqMbd+7aBH8RwAu/JZQArEnK4JyAfUewlSGRz6fuXxxzjaE9xz1Bzgk5yiqfmBil5JPzLIed2cj5MDA6DOfrxXzHH+xl+z9ChSPwn4lVSGA/4ux8aCUEm3fsdviPvjJVUAMbIQoCjauVCf8ADGnwA3I//CMeKd0QZYmX4w/G5XXdGYj86/EjJPlsfLJ+aPh0IZQwAOr/AGi7aS4+FWrKsd1lPE3w3kTyo52kxH8R/CMhC+Ugk8v5cSgDGwNu+XdXu4BDPiN8b3Iwjj+NjkcdCMYA5Ocjgivz6/aD/ZS+B2k/C7Vr638P+LFlTxJ4AG+T4v8Axqm2m6+I/hSF2Cz/ABHKBirkIwAaHIaIxuFx7c37IXwKkMjv4f8AFrHzpmw3xi+NhXd5zO2wH4j7IwzEkqgVOCNu0hQAfTDFuojc47GNyTySAcjjI4GORxupynAx5bgemyXHXPTZ1OOoBA5J7A/L3/DHHwGzu/4R/wAaAgYBX42fHZSQyqpB2/EsZyqjg5/iJILvlqfsb/AVDldB8chsk/8AJcfjyxyRsAAb4m8RndgIMIGCMFDKu0A+nzuz8sbDnJzFJnI54+Vhjdn/ABFNUSAhij8H7ojbpk4I+XryMg4yBXzSP2O/gUkgkXRPHgdSwBX44fHlU+c85j/4WdsbgkKWQ7OiAACkk/ZB+B8m0tpHj1Sg4EPx2+PtsCAMYKw/E2MMijBVGBVDll5zQB9NMN+QUlHA/wCWbjPGMZC5PQcZx6YHFAUj5VEyj2WRM9OSVAGfU9hkjnp8wH9jv4HyO0h074kFm8oEL+0B+0Iq4jEZUqqfE9EQkx5kwo83dIZCfMbLov2OfggmMWPxOJBUln/aD/aDcvs6F93xRIckdSOH7jAFAH0Xqej6brFu9nqulWeq2swKzW2p2FtqNtIjEblkhvLa4jYEgZRkKttUn7oI83ufgj8PmlN5o+iXfg7U98sqaj4F1XWPB9wstxPFdTytFolzBptw01xAkky3enzxyZeNo/LmlWTzdP2OfglEkkUdt8UlWRZAWP7RH7Q5lAmV1cpI3xNYxvtkwjKQU2x7NpQGkX9jj4JooHlfFY85Bk/aJ/aEZuB90t/ws3cUGcBT90nI7GgDtY/AHxY0Zg2gfGe/1i3gVRbab8RfAvh/XwyoxZYLjXvDZ8H6+/mqfJmvpZLu5WNY5I081GEsuoeOviL4RSe48Y/DSbVtDtIvPufE/wAN9Vj1wQQKrGa5vfCOvx6L4kiS2SNp7hNKm10pCV8lrmRWB4ib9jv4MTgkr8WEONgNv+0R+0FEVVSrAjZ8Svvh0+9yScglgxFct4x/ZA+Dlj4S8S3aN8XJZbLw1rk8Kz/tD/H64Rnt9HvJVEsUnxGMc4mkQGdZldZhuVxsYrQB9daRq9l4g0jS9c0iaO/0rWdPstW0y+jjnSO80/UrWG9sruJZoo5RHc200cyCSNJFD4kRHyoK+Gvgv+yN8HL74OfCW6uX+LwmuPhl4AuJUj/aK+Piqkk/hDRZHQJD8R4o0VWOFWNFjUcRoq9SgD74mDcf76v2yTHIj46gDIULnpuz6kHgPhb4Km+HXgLwx4Lm1JNXl8P2ElnLqUds1il0XvLq7Mi2bTXDQKBdGPa0zn5N2VDBR6SR09z/AEP+A/IUYHoPyFACAcc56n+ZxgdOnHTpS7R6D8h/hS0UAFJgfy7nt0paKAE2j0/Qf4Zo2j0H5D/ClooATA9/zP8AjRgf5J/z/k+ppaKAE2r6CjA9B+Q+lLRQAwjAz7jr06jP+eSe+SBXlnibwNda58Qfhz40i1OO1t/A0fjhLjTmt5JZtTPi3RLDSIBDcLII7Y2Mlo1xL5kcpmV1SPYwdq9VPQ/Q0hAweB0PagBkY4/DtwPvN0x9PXngnth7AbT9Cc4yf1BoHU/5/ialPQ/Q0AeYfEnwZdeNrLw7Z2dxZWr6J4/8CeMHkvY7iQSW3hLxFbaxc20BtmVo725hha3tJpN1ujsDOGjJr0eEfKoPOAR3I4wOpA9uvp7CpCBzwPvMOn+yf8Kcv9P6L/ifzoAXavoPyH0/lx7jrS4HXHr+vWlooATA/wAccZ+uOtJtX09+/wDn6enanUUARvgKccdOg9wOwzznGeo7d68v8YeDL/xF4u+F3iG1vbS2tvAfibXNc1GC4SZ59Qt9V8Ia34cit7J4i0cM8N1qkNxK1wBE8EUkaEOVz6k3/srH8sYprAZHA6r2/wB6gCOEYABAyAQeh5wPp1wcd+DkdzYwPSmqBgcDoO3tTqAGMAAcADg+vt6e2ev8s15d408HX/iPxb8K9ftLiwht/AfizXde1OK6Wdrq5tNV8BeKPCkcOmmJWijuo73W7S5m+1FYjZQ3CxsZiiN6pTSBjoOo7D1FAEUQyOQMjI46fkfzxjj8RibaP8k/401B/Ifzan0AJgf5/wA/n6856mmOABwOfx6YJ7euMH2JHoKkqN//AIn/ANmoA8t+LHg7UvHngq+8M6Rd2mn39xqvhe/iur9ZjbCPQvFWia/dRt5Mc0geez0ye3gwhAmljaQqgZ19LQnLcdWd85BB3OWx35CkZ7A4PIOKlUZPPt/6EKkYADgY69PoT/MZoAXaP8k/X19efrz1o2j/APXg/wAx/nr15paKAEwPQUbR7/z/AJ5/z7gYWigBNo/z/n/PHoMG0elLRQAmB7/mf8aTaP8AIH9Qf8+1OooATA9M8+me/wDnnr65rn/E2nzaroOtaZb+Wk+paNqunwvNuWFZr6xubSNpdm5hGrzK0hUMwQEqCeK6GmNwOOOD/Mf4n8z60Aee/Djw/qPhT4e+BfC+pvaSan4a8G+FfD2pS2bO1lJf6JoGnaXevZPJHC72j3VrK1szRRM0LRs0UbEqCvQwB6Dqe3uaKAP/2Q==;" parent="1" vertex="1">
          <mxGeometry x="320" y="120" width="357" height="250" as="geometry" />
        </mxCell>
        <mxCell id="F7d6KHgLb2zkoxTIFbRi-3" value="&lt;font style=&quot;font-size: 12px;&quot;&gt;&lt;span style=&quot;font-size: 12px;&quot;&gt;1&lt;/span&gt;&lt;/font&gt;" style="ellipse;whiteSpace=wrap;html=1;aspect=fixed;fontSize=12;fontStyle=1" parent="1" vertex="1">
          <mxGeometry x="370" y="360" width="20" height="20" as="geometry" />
        </mxCell>
        <mxCell id="F7d6KHgLb2zkoxTIFbRi-4" value="&lt;b&gt;2&lt;/b&gt;" style="ellipse;whiteSpace=wrap;html=1;aspect=fixed;" parent="1" vertex="1">
          <mxGeometry x="430" y="360" width="20" height="20" as="geometry" />
        </mxCell>
        <mxCell id="F7d6KHgLb2zkoxTIFbRi-5" value="&lt;b&gt;3&lt;/b&gt;" style="ellipse;whiteSpace=wrap;html=1;aspect=fixed;" parent="1" vertex="1">
          <mxGeometry x="470" y="360" width="20" height="20" as="geometry" />
        </mxCell>
        <mxCell id="F7d6KHgLb2zkoxTIFbRi-6" value="&lt;b&gt;4&lt;/b&gt;" style="ellipse;whiteSpace=wrap;html=1;aspect=fixed;" parent="1" vertex="1">
          <mxGeometry x="514" y="360" width="20" height="20" as="geometry" />
        </mxCell>
        <mxCell id="F7d6KHgLb2zkoxTIFbRi-7" value="&lt;b&gt;5&lt;/b&gt;" style="ellipse;whiteSpace=wrap;html=1;aspect=fixed;" parent="1" vertex="1">
          <mxGeometry x="550" y="360" width="20" height="20" as="geometry" />
        </mxCell>
        <mxCell id="F7d6KHgLb2zkoxTIFbRi-8" value="&lt;b&gt;6&lt;/b&gt;" style="ellipse;whiteSpace=wrap;html=1;aspect=fixed;" parent="1" vertex="1">
          <mxGeometry x="620" y="360" width="20" height="20" as="geometry" />
        </mxCell>
      </root>
    </mxGraphModel>
  </diagram>
  <diagram id="ixVXDa2naubaXVcUvERr" name="contours">
    <mxGraphModel dx="714" dy="431" grid="0" gridSize="10" guides="1" tooltips="1" connect="1" arrows="1" fold="1" page="1" pageScale="1" pageWidth="827" pageHeight="1169" math="0" shadow="0">
      <root>
        <mxCell id="0" />
        <mxCell id="1" parent="0" />
        <mxCell id="sXqM3n9Ry33rp_w3J5qQ-1" value="&lt;font style=&quot;font-size: 18px;&quot;&gt;&lt;b style=&quot;font-size: 18px;&quot;&gt;P&lt;sub style=&quot;font-size: 18px;&quot;&gt;1&lt;/sub&gt;&lt;/b&gt;&lt;/font&gt;" style="whiteSpace=wrap;html=1;aspect=fixed;fillColor=#dae8fc;strokeColor=#000000;fontSize=18;" parent="1" vertex="1">
          <mxGeometry x="160" y="200" width="80" height="80" as="geometry" />
        </mxCell>
        <mxCell id="sXqM3n9Ry33rp_w3J5qQ-2" value="" style="whiteSpace=wrap;html=1;aspect=fixed;strokeColor=#000000;fontSize=13;" parent="1" vertex="1">
          <mxGeometry x="240" y="200" width="80" height="80" as="geometry" />
        </mxCell>
        <mxCell id="sXqM3n9Ry33rp_w3J5qQ-3" value="" style="whiteSpace=wrap;html=1;aspect=fixed;strokeColor=#000000;fontSize=13;" parent="1" vertex="1">
          <mxGeometry x="160" y="280" width="80" height="80" as="geometry" />
        </mxCell>
        <mxCell id="sXqM3n9Ry33rp_w3J5qQ-4" value="" style="whiteSpace=wrap;html=1;aspect=fixed;fillColor=#46525E;strokeColor=#314354;fontSize=13;fontStyle=1;fontColor=#ffffff;" parent="1" vertex="1">
          <mxGeometry x="240" y="280" width="80" height="80" as="geometry" />
        </mxCell>
        <mxCell id="sXqM3n9Ry33rp_w3J5qQ-6" value="&lt;font style=&quot;font-size: 18px;&quot;&gt;&lt;b style=&quot;font-size: 18px;&quot;&gt;P&lt;sub style=&quot;font-size: 18px;&quot;&gt;4&lt;/sub&gt;&lt;/b&gt;&lt;/font&gt;" style="whiteSpace=wrap;html=1;aspect=fixed;fillColor=#dae8fc;strokeColor=#000000;fontSize=18;" parent="1" vertex="1">
          <mxGeometry x="160" y="360" width="80" height="80" as="geometry" />
        </mxCell>
        <mxCell id="sXqM3n9Ry33rp_w3J5qQ-7" value="" style="whiteSpace=wrap;html=1;aspect=fixed;strokeColor=#000000;fontSize=13;" parent="1" vertex="1">
          <mxGeometry x="240" y="360" width="80" height="80" as="geometry" />
        </mxCell>
        <mxCell id="sXqM3n9Ry33rp_w3J5qQ-8" value="&lt;font style=&quot;font-size: 18px;&quot;&gt;&lt;b style=&quot;font-size: 18px;&quot;&gt;P&lt;sub style=&quot;font-size: 18px;&quot;&gt;3&lt;/sub&gt;&lt;/b&gt;&lt;/font&gt;" style="whiteSpace=wrap;html=1;aspect=fixed;fillColor=#dae8fc;strokeColor=#000000;fontSize=18;" parent="1" vertex="1">
          <mxGeometry x="320" y="200" width="80" height="80" as="geometry" />
        </mxCell>
        <mxCell id="sXqM3n9Ry33rp_w3J5qQ-9" value="" style="whiteSpace=wrap;html=1;aspect=fixed;strokeColor=#000000;fontSize=13;" parent="1" vertex="1">
          <mxGeometry x="320" y="280" width="80" height="80" as="geometry" />
        </mxCell>
        <mxCell id="sXqM3n9Ry33rp_w3J5qQ-10" value="&lt;font style=&quot;font-size: 18px;&quot;&gt;&lt;b style=&quot;font-size: 18px;&quot;&gt;P&lt;sub style=&quot;font-size: 18px;&quot;&gt;2&lt;/sub&gt;&lt;/b&gt;&lt;/font&gt;" style="whiteSpace=wrap;html=1;aspect=fixed;fillColor=#dae8fc;strokeColor=#000000;fontSize=18;" parent="1" vertex="1">
          <mxGeometry x="320" y="360" width="80" height="80" as="geometry" />
        </mxCell>
        <mxCell id="sXqM3n9Ry33rp_w3J5qQ-11" value="" style="endArrow=classic;startArrow=classic;html=1;rounded=0;strokeWidth=2;strokeColor=#000000;dashed=1;dashPattern=1 1;" parent="1" edge="1">
          <mxGeometry width="50" height="50" relative="1" as="geometry">
            <mxPoint x="215" y="252" as="sourcePoint" />
            <mxPoint x="342" y="384" as="targetPoint" />
          </mxGeometry>
        </mxCell>
        <mxCell id="sXqM3n9Ry33rp_w3J5qQ-12" value="" style="endArrow=classic;startArrow=classic;html=1;rounded=0;strokeWidth=2;strokeColor=#000000;dashed=1;dashPattern=1 1;" parent="1" edge="1">
          <mxGeometry width="50" height="50" relative="1" as="geometry">
            <mxPoint x="217" y="383" as="sourcePoint" />
            <mxPoint x="352" y="254" as="targetPoint" />
          </mxGeometry>
        </mxCell>
        <mxCell id="sXqM3n9Ry33rp_w3J5qQ-13" value="&lt;div style=&quot;font-size: 18px;&quot;&gt;&lt;font style=&quot;font-size: 18px;&quot; color=&quot;#ffffff&quot;&gt;&lt;b&gt;&lt;font style=&quot;font-size: 18px;&quot;&gt;Pixel&lt;/font&gt;&lt;/b&gt;&lt;/font&gt;&lt;/div&gt;&lt;div style=&quot;font-size: 18px;&quot;&gt;&lt;font style=&quot;font-size: 18px;&quot; color=&quot;#ffffff&quot;&gt;&lt;b&gt;&lt;font style=&quot;font-size: 18px;&quot;&gt;testé&lt;/font&gt;&lt;/b&gt;&lt;/font&gt;&lt;/div&gt;" style="text;html=1;align=center;verticalAlign=middle;resizable=0;points=[];autosize=1;strokeColor=none;fillColor=none;" parent="1" vertex="1">
          <mxGeometry x="245" y="290" width="70" height="60" as="geometry" />
        </mxCell>
      </root>
    </mxGraphModel>
  </diagram>
</mxfile>
